<?xml version="1.0" standalone="no"?>
<!DOCTYPE svg PUBLIC "-//W3C//DTD SVG 1.1//EN" "http://www.w3.org/Graphics/SVG/1.1/DTD/svg11.dtd" >
<svg xmlns="http://www.w3.org/2000/svg">
<metadata>
This is a custom SVG font generated by IcoMoon.
<iconset grid="16"></iconset>
</metadata>
<defs>
<font id="icomoon" horiz-adv-x="512" >
<font-face units-per-em="512" ascent="480" descent="-32" />
<missing-glyph horiz-adv-x="512" />
<glyph unicode="&#x61;" d="M 460.072,132.571q0.00-15.143 -10.571-25.714l-21.429-21.429q-10.857-10.857 -26.00-10.857q-15.429,0.00 -25.714,10.857l-138.857,138.571l-138.857-138.571q-10.286-10.857 -25.714-10.857t-25.714,10.857l-21.429,21.429q-10.857,10.286 -10.857,25.714q0.00,15.143 10.857,26.00l 186.00,186.00q 10.571,10.571 25.714,10.571q 14.857,0.00 26.00-10.571l 185.714-186.00q 10.857-10.857 10.857-26.00z" horiz-adv-x="475" />
<glyph unicode="&#x64;" d="M 460.072,278.857q0.00-15.143 -10.571-25.714l-186.00-186.00q-10.857-10.857 -26.00-10.857q-15.429,0.00 -25.714,10.857l-186.00,186.00q-10.857,10.286 -10.857,25.714q0.00,15.143 10.857,26.00l 21.143,21.429q 11.143,10.571 26.00,10.571q 15.143,0.00 25.714-10.571l 138.857-138.857l 138.857,138.857q 10.571,10.571 25.714,10.571q 14.857,0.00 26.00-10.571l 21.429-21.429q 10.571-11.143 10.571-26.00z" horiz-adv-x="475" />
<glyph unicode="&#x6c;" d="M 438.428,224.00l0.00-36.571 q0.00-15.143 -9.286-25.857t-24.143-10.714l-201.143,0.00 l 83.714-84.00q 10.857-10.286 10.857-25.714t-10.857-25.714l-21.429-21.714q-10.571-10.571 -25.714-10.571q-14.857,0.00 -26.00,10.571l-186.00,186.286q-10.571,10.571 -10.571,25.714q0.00,14.857 10.571,26.00l 186.00,185.714q 10.857,10.857 26.00,10.857q 14.857,0.00 25.714-10.857l 21.429-21.143q 10.857-10.857 10.857-26.00t-10.857-26.00l-83.714-83.714l 201.143,0.00 q 14.857,0.00 24.143-10.714 t 9.286-25.857z" horiz-adv-x="438" />
<glyph unicode="&#x72;" d="M 420.142,205.714q0.00-15.429 -10.571-26.00l-186.00-186.00q-11.143-10.571 -26.00-10.571q-14.571,0.00 -25.714,10.571l-21.429,21.429q-10.857,10.857 -10.857,26.00t 10.857,26.00l 83.714,83.714l-201.143,0.00 q-14.857,0.00 -24.143,10.714t-9.286,25.857l0.00,36.571 q0.00,15.143 9.286,25.857t 24.143,10.714l 201.143,0.00 l-83.714,84.00q-10.857,10.286 -10.857,25.714t 10.857,25.714l 21.429,21.429q 10.857,10.857 25.714,10.857q 15.143,0.00 26.00-10.857l 186.00-186.00q 10.571-10.00 10.571-25.714z" horiz-adv-x="438" />
<glyph unicode="&#x76;" d="M 328.714,224.00q0.00-10.571 -9.429-16.00l-146.286-82.286q-4.00-2.286 -8.857-2.286t-9.143,2.571q-9.143,5.143 -9.143,15.714l0.00,164.571 q0.00,10.571 9.143,15.714q 8.857,5.714 18.00,0.286l 146.286-82.286q 9.429-5.429 9.429-16.00zM 365.285,224.00q0.00,29.714 -11.571,56.714t-31.286,46.714t-46.714,31.286t-56.714,11.571t-56.714-11.571t-46.714-31.286t-31.286-46.714t-11.571-56.714t 11.571-56.714 t 31.286-46.714t 46.714-31.286t 56.714-11.571t 56.714,11.571t 46.714,31.286t 31.286,46.714t 11.571,56.714zM 438.428,224.00q0.00-59.714 -29.429-110.143t-79.857-79.857t-110.143-29.429t-110.143,29.429t-79.857,79.857t-29.429,110.143t 29.429,110.143t 79.857,79.857t 110.143,29.429t 110.143-29.429t 79.857-79.857t 29.429-110.143z" horiz-adv-x="438" />
<glyph unicode="&#x63;" d="M 219.00,443.429q 59.714,0.00 110.143-29.429t 79.857-79.857t 29.429-110.143t-29.429-110.143t-79.857-79.857t-110.143-29.429t-110.143,29.429t-79.857,79.857t-29.429,110.143t 29.429,110.143t 79.857,79.857t 110.143,29.429zM 255.571,87.143l0.00,54.286 q0.00,4.00 -2.571,6.714t-6.286,2.714l-54.857,0.00 q-3.714,0.00 -6.571-2.857t-2.857-6.571l0.00-54.286 q0.00-3.714 2.857-6.571t 6.571-2.857l 54.857,0.00  q 3.714,0.00 6.286,2.714t 2.571,6.714zM 255.00,185.429l 5.143,177.429q0.00,3.429 -2.857,5.143q-2.857,2.286 -6.857,2.286l-62.857,0.00 q-4.00,0.00 -6.857-2.286q-2.857-1.714 -2.857-5.143l 4.857-177.429q0.00-2.857 2.857-5.00t 6.857-2.143l 52.857,0.00 q 4.00,0.00 6.714,2.143t 3.00,5.00z" horiz-adv-x="438" />
<glyph unicode="&#x66;" d="M 256.00,4.571q-7.429,0.00 -12.571,5.143l-178.286,172.00q-2.857,2.286 -7.857,7.429t-15.857,18.714t-19.429,27.857t-15.286,34.571t-6.714,39.429q0.00,62.857 36.286,98.286t 100.286,35.429q 17.714,0.00 36.143-6.143t 34.286-16.571t 27.286-19.571t 21.714-19.429q 10.286,10.286 21.714,19.429t 27.286,19.571t 34.286,16.571t 36.143,6.143q 64.00,0.00 100.286-35.429t 36.286-98.286q0.00-63.143 -65.429-128.571l-178.00-171.429 q-5.143-5.143 -12.571-5.143z" />
<glyph unicode="&#x73;" d="M 402.072,197.429l0.00-74.00 q0.00-34.00 -24.143-58.143t-58.143-24.143l-237.714,0.00 q-34.00,0.00 -58.143,24.143t-24.143,58.143l0.00,237.714 q0.00,34.00 24.143,58.143t 58.143,24.143l 72.857,0.00 l0.00,0.00 q 3.714,0.00 6.429-2.714t 2.714-6.429q0.00-7.714 -7.429-9.143q-22.00-7.429 -38.00-17.143q-2.857-1.143 -4.571-1.143l-32.00,0.00 q-18.857,0.00 -32.286-13.429t-13.429-32.286l0.00-237.714 q0.00-18.857 13.429-32.286t 32.286-13.429l 237.714,0.00  q 18.857,0.00 32.286,13.429t 13.429,32.286l0.00,61.143 q0.00,5.429 5.143,8.286q 8.00,3.714 15.429,10.571q 4.571,4.571 10.00,2.286q 6.00-2.571 6.00-8.286zM 469.786,339.143l-109.714-109.714q-5.143-5.429 -12.857-5.429q-3.429,0.00 -7.143,1.429q-11.143,4.857 -11.143,16.857l0.00,54.857 l-45.714,0.00 q-92.286,0.00 -125.143-37.429q-34.00-39.143 -21.143-135.143q 0.857-6.571 -5.714-9.714q-2.286-0.571 -3.429-0.571q-4.571,0.00 -7.429,3.714q-2.857,4.00 -6.00,8.857t-11.286,19.571t-14.143,28.429 t-11.00,32.571t-5.00,34.857q0.00,14.00 1.00,26.00t 4.00,25.714t 8.00,25.143t 13.429,23.286t 19.571,21.143t 27.00,17.571t 35.571,13.857t 45.571,8.714t 56.143,3.143l 45.714,0.00 l0.00,54.857 q0.00,12.00 11.143,16.857q 3.714,1.429 7.143,1.429q 7.429,0.00 12.857-5.429l 109.714-109.714q 5.429-5.429 5.429-12.857t-5.429-12.857z" horiz-adv-x="475" />
<glyph unicode="&#x65;" d="M 64.00,224.00L 192.00,352.00L 128.00,352.00L0.00,224.00L 128.00,96.00L 192.00,96.00 	zM 384.00,352.00L 320.00,352.00L 448.00,224.00L 320.00,96.00L 384.00,96.00L 512.00,224.00 	zM 272.00,416.00L 192.00,32.00L 240.00,32.00L 320.00,416.00 	z"  />
<glyph unicode="&#x6b;" d="M 201.072,187.429q0.00,15.143 -10.714,25.857t-25.857,10.714t-25.857-10.714t-10.714-25.857q0.00-10.571 5.429-19.143t 14.571-13.429l-19.714-65.429q-1.429-4.286 1.429-8.00t 7.429-3.714l 54.857,0.00 q 4.571,0.00 7.429,3.714t 1.429,8.00l-19.714,65.429q 9.143,4.857 14.571,13.429t 5.429,19.143zM 91.358,260.571l 146.286,0.00 l0.00,54.857 q0.00,30.286 -21.429,51.714t-51.714,21.429t-51.714-21.429t-21.429-51.714l0.00-54.857 zM 329.072,233.143l0.00-164.571 q0.00-11.429 -8.00-19.429 t-19.429-8.00l-274.286,0.00 q-11.429,0.00 -19.429,8.00t-8.00,19.429l0.00,164.571 q0.00,11.429 8.00,19.429t 19.429,8.00l 9.143,0.00 l0.00,54.857 q0.00,52.571 37.714,90.286t 90.286,37.714t 90.286-37.714t 37.714-90.286l0.00-54.857 l 9.143,0.00 q 11.429,0.00 19.429-8.00t 8.00-19.429z" horiz-adv-x="329" />
<glyph unicode="&#x31;" d="M 219.20,150.933l 109.60,0.00 l0.00,27.40 l-36.533,0.00 l0.00,127.867 l-32.537,0.00 l-42.242-39.102l 21.977-22.833q 11.988,10.56 15.698,16.269l 0.57,0.00 l0.00-82.20 l-36.533,0.00 l0.00-27.40 zM 365.333,224.00q0.00-19.979 -5.994-40.529t-16.982-38.246t-28.97-28.827t-39.388-11.131t-39.388,11.131t-28.97,28.827t-16.982,38.246t-5.994,40.529t 5.994,40.529t 16.982,38.246t 28.97,28.827t 39.388,11.131t 39.388-11.131t 28.97-28.827t 16.982-38.246t 5.994-40.529zM 511.467,150.933 l0.00,146.134 q-30.254,0.00 -51.66,21.407t-21.407,51.66l-328.80,0.00 q0.00-30.254 -21.407-51.66t-51.66-21.407l0.00-146.134 q 30.254,0.00 51.66-21.407t 21.407-51.66l 328.80,0.00 q0.00,30.254 21.407,51.66t 51.66,21.407zM 548.00,388.399l0.00-328.80 q0.00-7.421 -5.423-12.844t-12.844-5.423l-511.467,0.00 q-7.421,0.00 -12.844,5.423t-5.423,12.844l0.00,328.80 q0.00,7.421 5.423,12.844t 12.844,5.423l 511.467,0.00 q 7.421,0.00 12.844-5.423t 5.423-12.844z" horiz-adv-x="548" />
<glyph unicode="&#x70;" d="M 109.50,41.143l 256.00,0.00 l0.00,73.143 l-256.00,0.00 l0.00-73.143 zM 109.50,224.00l 256.00,0.00 l0.00,109.714 l-45.714,0.00 q-11.429,0.00 -19.429,8.00t-8.00,19.429l0.00,45.714 l-182.857,0.00 l0.00-182.857 zM 438.643,205.714q0.00,7.429 -5.429,12.857t-12.857,5.429t-12.857-5.429t-5.429-12.857t 5.429-12.857t 12.857-5.429t 12.857,5.429t 5.429,12.857zM 475.215,205.714l0.00-118.857 q0.00-3.714 -2.714-6.429t-6.429-2.714l-64.00,0.00 l0.00-45.714 q0.00-11.429 -8.00-19.429t-19.429-8.00l-274.286,0.00 q-11.429,0.00 -19.429,8.00t-8.00,19.429 l0.00,45.714 l-64.00,0.00 q-3.714,0.00 -6.429,2.714t-2.714,6.429l0.00,118.857 q0.00,22.571 16.143,38.714t 38.714,16.143l 18.286,0.00 l0.00,155.429 q0.00,11.429 8.00,19.429t 19.429,8.00l 192.00,0.00 q 11.429,0.00 25.143-5.714t 21.714-13.714l 43.429-43.429q 8.00-8.00 13.714-21.714t 5.714-25.143l0.00-73.143 l 18.286,0.00 q 22.571,0.00 38.714-16.143t 16.143-38.714z" horiz-adv-x="475" />
<glyph unicode="&#x39;" d="M 438.428,406.857l0.00-128.00 q0.00-7.429 -5.429-12.857t-12.857-5.429l-128.00,0.00 q-12.00,0.00 -16.857,11.429q-4.857,11.143 4.00,19.714l 39.429,39.429q-42.286,39.143 -99.714,39.143q-29.714,0.00 -56.714-11.571t-46.714-31.286t-31.286-46.714t-11.571-56.714t 11.571-56.714t 31.286-46.714t 46.714-31.286t 56.714-11.571q 48.286,0.00 86.857,28.429t 52.857,74.714q 2.00,6.571 8.571,6.571l 56.857,0.00  q 4.571,0.00 7.143-3.429q 2.857-3.714 2.00-7.714q-11.143-50.00 -42.143-89.143t-76.00-60.857t-96.143-21.714q-44.571,0.00 -85.143,17.429t-70.00,46.857t-46.857,70.00t-17.429,85.143t 17.429,85.143t 46.857,70.00t 70.00,46.857t 85.143,17.429q 42.00,0.00 81.286-15.857t 69.857-44.714l 37.143,36.857q 8.286,8.857 20.00,4.00q 11.143-4.857 11.143-16.857z" horiz-adv-x="438" />
<glyph unicode="&#x36;" d="M 438.428,224.00q0.00-44.571 -17.429-85.143t-46.857-70.00t-70.00-46.857t-85.143-17.429q-51.143,0.00 -96.143,21.714t-76.00,60.857t-42.143,89.143q-0.857,4.00 2.00,7.714q 2.571,3.429 7.143,3.429l 56.857,0.00 q 6.571,0.00 8.571-6.571q 14.286-46.286 52.857-74.714t 86.857-28.429q 29.714,0.00 56.714,11.571t 46.714,31.286t 31.286,46.714t 11.571,56.714t-11.571,56.714t-31.286,46.714t-46.714,31.286 t-56.714,11.571q-28.00,0.00 -53.714-10.143t-45.714-29.00l 39.143-39.429q 8.857-8.571 4.00-19.714q-4.857-11.429 -16.857-11.429l-128.00,0.00 q-7.429,0.00 -12.857,5.429t-5.429,12.857l0.00,128.00 q0.00,12.00 11.429,16.857q 11.143,4.857 19.714-4.00l 37.143-36.857q 30.571,28.857 69.857,44.714t 81.286,15.857q 44.571,0.00 85.143-17.429t 70.00-46.857t 46.857-70.00t 17.429-85.143z" horiz-adv-x="438" />
<glyph unicode="&#x78;" d="M 327.857,159.429q0.00,7.429 -5.429,12.857l-51.714,51.714l 51.714,51.714q 5.429,5.429 5.429,12.857q0.00,7.714 -5.429,13.143l-25.714,25.714q-5.429,5.429 -13.143,5.429q-7.429,0.00 -12.857-5.429l-51.714-51.714l-51.714,51.714q-5.429,5.429 -12.857,5.429q-7.714,0.00 -13.143-5.429l-25.714-25.714q-5.429-5.429 -5.429-13.143q0.00-7.429 5.429-12.857l 51.714-51.714l-51.714-51.714q-5.429-5.429 -5.429-12.857q0.00-7.714 5.429-13.143l 25.714-25.714q 5.429-5.429 13.143-5.429 q 7.429,0.00 12.857,5.429l 51.714,51.714l 51.714-51.714q 5.429-5.429 12.857-5.429q 7.714,0.00 13.143,5.429l 25.714,25.714q 5.429,5.429 5.429,13.143zM 438.428,224.00q0.00-59.714 -29.429-110.143t-79.857-79.857t-110.143-29.429t-110.143,29.429t-79.857,79.857t-29.429,110.143t 29.429,110.143t 79.857,79.857t 110.143,29.429t 110.143-29.429t 79.857-79.857t 29.429-110.143z" horiz-adv-x="438" />
<glyph unicode="&#x2d;" d="M 292.357,251.429l0.00-18.286 q0.00-3.714 -2.714-6.429t-6.429-2.714l-164.571,0.00 q-3.714,0.00 -6.429,2.714t-2.714,6.429l0.00,18.286 q0.00,3.714 2.714,6.429t 6.429,2.714l 164.571,0.00 q 3.714,0.00 6.429-2.714t 2.714-6.429zM 328.929,242.286q0.00,52.857 -37.571,90.429t-90.429,37.571t-90.429-37.571t-37.571-90.429t 37.571-90.429t 90.429-37.571t 90.429,37.571t 37.571,90.429z M 475.215,4.571q0.00-15.143 -10.714-25.857t-25.857-10.714q-15.429,0.00 -25.714,10.857l-98.00,97.714q-51.143-35.429 -114.00-35.429q-40.857,0.00 -78.143,15.857t-64.286,42.857t-42.857,64.286t-15.857,78.143t 15.857,78.143t 42.857,64.286t 64.286,42.857t 78.143,15.857t 78.143-15.857t 64.286-42.857t 42.857-64.286t 15.857-78.143q0.00-62.857 -35.429-114.00l 98.00-98.00q 10.571-10.571 10.571-25.714z " horiz-adv-x="475" />
<glyph unicode="&#x3e;" d="M 164.142,224.00q0.00-7.429 -5.429-12.857l-128.00-128.00q-5.429-5.429 -12.857-5.429t-12.857,5.429t-5.429,12.857l0.00,256.00 q0.00,7.429 5.429,12.857t 12.857,5.429t 12.857-5.429l 128.00-128.00q 5.429-5.429 5.429-12.857z" horiz-adv-x="182" />
<glyph unicode="&#x56;" d="M 292.285,278.857q0.00-7.429 -5.429-12.857l-128.00-128.00q-5.429-5.429 -12.857-5.429t-12.857,5.429l-128.00,128.00q-5.429,5.429 -5.429,12.857t 5.429,12.857t 12.857,5.429l 256.00,0.00 q 7.429,0.00 12.857-5.429t 5.429-12.857z" horiz-adv-x="292" />
<glyph unicode="&#x21;" d="M 463.906,480.00L 319.625,480.00 c-26.453,0.00-63.398-15.303-82.102-34.007L 14.028,222.498c-18.704-18.704-18.704-49.312,0.00-68.016
	l 172.455-172.453c 18.704-18.705, 49.311-18.705, 68.015,0.00l 223.495,223.494C 496.697,224.228, 512.00,261.174, 512.00,287.625L 512.00,431.906 
	C 512.00,458.358, 490.357,480.00, 463.906,480.00z M 400.00,320.00c-26.51,0.00-48.00,21.49-48.00,48.00s 21.49,48.00, 48.00,48.00s 48.00-21.49, 48.00-48.00S 426.51,320.00, 400.00,320.00z"  />
<glyph unicode="&#x22;" d="M 192.00,336.00A80.00,80.00 11340.00 1 1 352.00,336A80.00,80.00 11340.00 1 1 192.00,336zM0.00,336.00A80.00,80.00 11340.00 1 1 160.00,336A80.00,80.00 11340.00 1 1 0.00,336zM 384.00,176.00l0.00,48.00 c0.00,17.60-14.40,32.00-32.00,32.00l-80.00,0.00 L 80.00,256.00 L 32.00,256.00 c-17.60,0.00-32.00-14.40-32.00-32.00l0.00-160.00 c0.00-17.60, 14.40-32.00, 32.00-32.00l 320.00,0.00 c 17.60,0.00, 32.00,14.40, 32.00,32.00
		l0.00,48.00 l 128.00-80.00L 512.00,256.00 L 384.00,176.00z M 320.00,96.00L 64.00,96.00 l0.00,96.00 l 256.00,0.00 L 320.00,96.00 z"  />
<glyph unicode="&#x23;" d="M 96.00,416.00L 416.00,224.00L 96.00,32.00 z"  />
<glyph unicode="&#x24;" d="M 64.00,416.00L 224.00,416.00L 224.00,32.00L 64.00,32.00zM 288.00,416.00L 448.00,416.00L 448.00,32.00L 288.00,32.00z"  />
<glyph unicode="&#x26;" d="M 200.666,440.666 C 213.50,453.50 224.00,449.15 224.00,431.00 L 224.00,17.00 C 224.00-1.15 213.50-5.499 200.666,7.335 L 80.00,128.00 L 0.00,128.00 L 0.00,320.00 L 80.00,320.00 L 200.666,440.666 ZM 480.00,170.426 L 480.00,128.00 L 437.574,128.00 L 384.00,181.574 L 330.426,128.00 L 288.00,128.00 L 288.00,170.426 L 341.574,224.00 L 288.00,277.574 L 288.00,320.00 L 330.426,320.00 L 384.00,266.426 L 437.574,320.00 L 480.00,320.00 L 480.00,277.574 L 426.426,224.00 Z"  />
<glyph unicode="&#x25;" d="M 359.765,64.235c-6.143,0.00-12.284,2.343-16.971,7.029c-9.372,9.372-9.372,24.568,0.00,33.941
		c 65.503,65.503, 65.503,172.085,0.00,237.588c-9.372,9.373-9.372,24.569,0.00,33.941c 9.372,9.371, 24.569,9.372, 33.941,0.00
		C 417.532,335.938, 440.00,281.696, 440.00,224.00c0.00-57.695-22.468-111.938-63.265-152.735C 372.049,66.578, 365.907,64.235, 359.765,64.235zM 274.51,109.49c-6.143,0.00-12.284,2.343-16.971,7.029c-9.373,9.373-9.373,24.568,0.00,33.941
		c 40.55,40.55, 40.55,106.529,0.00,147.078c-9.373,9.373-9.373,24.569,0.00,33.941c 9.373,9.372, 24.568,9.372, 33.941,0.00
		c 59.265-59.265, 59.265-155.696,0.00-214.961C 286.794,111.833, 280.652,109.49, 274.51,109.49zM 200.666,440.666 C 213.50,453.50 224.00,449.15 224.00,431.00 L 224.00,17.00 C 224.00-1.15 213.50-5.499 200.666,7.335 L 80.00,128.00 L 0.00,128.00 L 0.00,320.00 L 80.00,320.00 L 200.666,440.666 Z"  />
<glyph unicode="&#x27;" d="M 448.00,480.00L0.00,480.00 l0.00-512.00 l 512.00,0.00 L 512.00,416.00 L 448.00,480.00z M 256.00,416.00l 64.00,0.00 l0.00-128.00 l-64.00,0.00 L 256.00,416.00 z M 448.00,32.00L 64.00,32.00 L 64.00,416.00 l 32.00,0.00 l0.00-160.00 l 288.00,0.00 L 384.00,416.00 l 37.489,0.00 L 448.00,389.491L 448.00,32.00 z"  />
<glyph unicode="&#x28;" d="M 64.00,32.00 L 64.00,416.00 L 128.00,416.00 L 128.00,240.00 L 288.00,400.00 L 288.00,240.00 L 448.00,400.00 L 448.00,48.00 L 288.00,208.00 L 288.00,48.00 L 128.00,208.00 L 128.00,32.00 Z"  />
<glyph unicode="&#x29;" d="M 432.00,480.00 C 476.182,480.00 512.00,444.183 512.00,400.00 C 512.00,381.99 506.045,365.371 496.00,352.00 L 464.00,320.00 L 352.00,432.00 L 384.00,464.00 C 397.371,474.045 413.989,480.00 432.00,480.00 ZM 32.00,112.00L0.00-32.00l 144.00,32.00l 296.00,296.00L 328.00,408.00L 32.00,112.00z M 357.789,298.211l-224.00-224.00l-27.578,27.578l 224.00,224.00L 357.789,298.211z"  />
<glyph unicode="&#x2f;" d="M 96.00-32.00L 416.00-32.00L 448.00,320.00L 64.00,320.00 	zM 320.00,416.00L 320.00,480.00 L 192.00,480.00 l0.00-64.00 L 32.00,416.00 l0.00-96.00 l 32.00,32.00l 384.00,0.00 l 32.00-32.00L 480.00,416.00 L 320.00,416.00 z M 288.00,416.00l-64.00,0.00 L 224.00,448.00 l 64.00,0.00 L 288.00,416.00 z"  />
<glyph unicode="&#x2e;" d="M 466.895,174.875c-26.863,46.527-10.708,106.152, 36.076,133.244l-50.313,87.146c-14.375-8.427-31.088-13.259-48.923-13.259
	c-53.768,0.00-97.354,43.873-97.354,97.995L 205.752,480.001 c 0.133-16.705-4.037-33.641-12.979-49.126
	c-26.862-46.528-86.578-62.351-133.431-35.379L 9.03,308.35c 14.485-8.236, 27.025-20.294, 35.943-35.739
	c 26.819-46.454, 10.756-105.96-35.854-133.112l 50.313-87.146c 14.325,8.348, 30.958,13.127, 48.70,13.127
	c 53.598,0.00, 97.072-43.596, 97.35-97.479l 100.627,0.00 c-0.043,16.537, 4.136,33.285, 12.983,48.609
	c 26.818,46.453, 86.388,62.297, 133.207,35.506l 50.313,87.145C 488.222,147.494, 475.766,159.51, 466.895,174.875z M 256.00,120.334
	c-57.254,0.00-103.668,46.412-103.668,103.667c0.00,57.254, 46.413,103.667, 103.668,103.667c 57.254,0.00, 103.666-46.413, 103.666-103.667
	C 359.665,166.746, 313.254,120.334, 256.00,120.334z"  />
<glyph unicode="&#x30;" d="M 311.413,128.632c-11.055,1.759-11.307,32.157-11.307,32.157s 32.484,32.158, 39.564,75.401
	c 19.045,0.00, 30.809,45.973, 11.761,62.148C 352.226,315.365, 375.911,432.00, 256.00,432.00c-119.911,0.00-96.225-116.635-95.432-133.662
	c-19.047-16.175-7.285-62.148, 11.761-62.148c 7.079-43.243, 39.564-75.401, 39.564-75.401s-0.252-30.398-11.307-32.157
	C 164.976,122.966, 32.00,64.315, 32.00,0.00l 224.00,0.00 l 224.00,0.00 C 480.00,64.315, 347.024,122.966, 311.413,128.632z"  />
<glyph unicode="&#x32;" d="M 256.00,384.00C 144.341,384.00, 47.559,318.979,0.00,224.00c 47.559-94.979, 144.341-160.00, 256.00-160.00c 111.657,0.00, 208.439,65.021, 256.00,160.00
	C 464.442,318.979, 367.657,384.00, 256.00,384.00z M 382.225,299.148c 30.081-19.187, 55.571-44.887, 74.717-75.148
	c-19.146-30.261-44.637-55.961-74.718-75.149C 344.427,124.743, 300.779,112.00, 256.00,112.00c-44.78,0.00-88.428,12.743-126.225,36.852
	C 99.695,168.038, 74.205,193.738, 55.058,224.00c 19.146,30.262, 44.637,55.962, 74.717,75.148c 1.959,1.25, 3.938,2.461, 5.929,3.65
	C 130.725,289.134, 128.00,274.387, 128.00,259.00c0.00-70.692, 57.308-128.00, 128.00-128.00s 128.00,57.308, 128.00,128.00c0.00,15.387-2.725,30.134-7.704,43.799
	C 378.286,301.61, 380.265,300.398, 382.225,299.148z M 256.00,275.00c0.00-26.51-21.49-48.00-48.00-48.00s-48.00,21.49-48.00,48.00s 21.49,48.00, 48.00,48.00
	S 256.00,301.51, 256.00,275.00z"  />
<glyph unicode="&#x2b;" d="M 292.357,251.429l0.00-18.286 q0.00-3.714 -2.714-6.429t-6.429-2.714l-64.00,0.00 l0.00-64.00 q0.00-3.714 -2.714-6.429t-6.429-2.714l-18.286,0.00 q-3.714,0.00 -6.429,2.714t-2.714,6.429l0.00,64.00 l-64.00,0.00 q-3.714,0.00 -6.429,2.714t-2.714,6.429l0.00,18.286 q0.00,3.714 2.714,6.429t 6.429,2.714l 64.00,0.00 l0.00,64.00 q0.00,3.714 2.714,6.429t 6.429,2.714l 18.286,0.00 q 3.714,0.00 6.429-2.714t 2.714-6.429l0.00-64.00 l 64.00,0.00  q 3.714,0.00 6.429-2.714t 2.714-6.429zM 328.929,242.286q0.00,52.857 -37.571,90.429t-90.429,37.571t-90.429-37.571t-37.571-90.429t 37.571-90.429t 90.429-37.571t 90.429,37.571t 37.571,90.429zM 475.215,4.571q0.00-15.143 -10.714-25.857t-25.857-10.714q-15.429,0.00 -25.714,10.857l-98.00,97.714q-51.143-35.429 -114.00-35.429q-40.857,0.00 -78.143,15.857 t-64.286,42.857t-42.857,64.286t-15.857,78.143t 15.857,78.143t 42.857,64.286t 64.286,42.857t 78.143,15.857t 78.143-15.857t 64.286-42.857t 42.857-64.286t 15.857-78.143q0.00-62.857 -35.429-114.00l 98.00-98.00q 10.571-10.571 10.571-25.714z" horiz-adv-x="475" />
<glyph unicode="&#x6f;" d="M 329.143,242.286q0.00,52.857 -37.571,90.429t-90.429,37.571t-90.429-37.571t-37.571-90.429t 37.571-90.429t 90.429-37.571t 90.429,37.571t 37.571,90.429zM 475.429,4.571q0.00-14.857 -10.857-25.714t-25.714-10.857q-15.429,0.00 -25.714,10.857l-98.00,97.714q-51.143-35.429 -114.00-35.429q-40.857,0.00 -78.143,15.857t-64.286,42.857t-42.857,64.286t-15.857,78.143 t 15.857,78.143t 42.857,64.286t 64.286,42.857t 78.143,15.857t 78.143-15.857t 64.286-42.857t 42.857-64.286t 15.857-78.143q0.00-62.857 -35.429-114.00l 98.00-98.00q 10.571-10.571 10.571-25.714z" horiz-adv-x="475"  />
<glyph unicode="&#x4e;" d="M 254.712,480.00C 114.362,480.00,0.00,365.879,0.00,223.962c0.00-141.912, 115.059-256.101, 254.872-256.101c 141.916,0.00, 256.767,114.132, 256.767,256.046
		C 511.639,365.826, 396.625,480.00, 254.712,480.00z M 133.344,422.319c 7.794,5.461, 20.442,12.054, 33.159,17.097c 3.813,1.51, 5.777,1.902, 9.268,1.552
		c 9.373-0.939, 24.897-7.25, 42.708-19.958c 21.363-15.241, 40.364-44.197, 27.655-41.855c-8.036,1.393-4.537,1.01-13.959,2.044
		c-9.627,0.853-15.945-0.134-20.382,0.318c-1.933,0.157-3.456,1.445-4.818,2.559c-18.029,16.167-38.856,26.427-69.39,30.135
		C 130.413,415.028, 130.311,420.275, 133.344,422.319z M 403.821,285.046c-8.782-3.853-24.039-1.632-33.17,0.465
		c-4.607,1.072-10.342,2.229-12.617-1.863c-2.471-4.443-0.699-11.252, 1.209-15.398c 2.272-4.957, 5.451-8.522, 9.575-10.427
		c 5.648-2.604, 13.392-2.742, 18.587-5.735c 9.68-5.561, 10.052-23.762, 3.708-32.793c-5.307-7.568-21.106-8.941-35.744-8.236
		c-14.168,0.691-30.599,2.172-41.042-2.187c-10.284-4.276-15.25-11.506-21.358-20.487c-0.817-1.113-2.155-1.347-3.434-0.474
		c-36.356,21.848-82.245,33.099-106.765,67.727c-6.04,8.545-9.842,18.936-11.884,31.288c-4.821,29.219, 7.533,49.529, 23.345,62.025
		c 8.468,6.70, 32.884,16.012, 61.952,8.862c 8.224-2.028, 29.737-9.06, 44.027-16.06c 14.011-6.422, 23.99-18.347, 37.008-25.565
		c 16.444-9.132, 39.041-13.397, 56.438-21.913C 397.156,292.562, 406.409,286.368, 403.821,285.046z M 404.615,194.238
		c 0.976-2.96, 1.688-5.951, 1.385-9.917c-0.886-11.457-10.19-17.049-11.864-27.756c-0.157-1.654-0.438-4.049-1.389-5.002
		c-7.102-7.229-21.149-5.708-33.848-4.428c-4.546,0.45-9.041,0.574-12.115,2.037c-2.219,1.04-4.21,3.155-6.053,4.867
		c-4.064,3.766-6.361,6.536-10.435,11.106c-1.38,1.546-4.511,4.347-4.716,6.047c-0.179,1.63, 1.568,6.317, 2.172,8.033
		c 1.411,4.071, 3.052,6.47, 6.215,8.45c 5.957,3.735, 15.856,3.897, 25.409,4.55c 9.256,0.625, 19.148,1.167, 25.733,4.209
		c 3.988,1.833, 7.973,7.054, 14.132,4.396C 402.157,199.568, 403.746,196.896, 404.615,194.238z M 55.993,345.494
		c 5.554,9.947, 18.467,26.587, 27.684,35.985c 1.748,1.854, 2.887,2.705, 5.481,3.435c 32.762,8.138, 65.627,2.957, 89.294-7.596
		c 5.315-2.351, 7.709-5.686, 4.22-7.923c-4.437-2.578-17.883-11.324-25.316-18.25c-2.161-1.863-6.016-1.96-8.287-1.658
		c-27.745,3.657-42.155,5.818-83.864-9.993C 58.803,336.802, 53.047,340.464, 55.993,345.494z M 33.834,148.289
		c-10.011,27.309-18.43,70.118-7.836,121.489c 0.525,2.964, 0.755,3.789, 2.541,6.12c 2.829,4.228, 37.146,42.736, 90.335,52.066
		c 6.999,1.001, 12.041,0.518, 13.187-2.288c 2.012-4.92-2.061-7.754-6.962-10.59c-85.309-50.983-79.26-126.776-80.077-157.78
		C 45.279,144.624, 36.121,142.315, 33.834,148.289z M 236.297-9.521c-49.198,3.899-96.755,24.295-130.947,53.744
		c-4.662,3.82-6.668,7.04-9.348,11.565c-21.745,34.754-33.933,157.846-5.91,199.595c 8.916,14.627, 18.364,7.884, 15.222-3.423
		c-5.366-25.382-2.077-39.607, 10.266-67.149c 19.396-40.93, 79.269-97.756, 95.119-118.37c 27.17-35.347, 36.213-61.096, 36.091-68.035
		C 246.644-6.917, 245.622-10.308, 236.297-9.521z M 392.074,33.556c-25.461-17.384-48.53-29.502-82.277-37.37
		c-5.08-1.189-10.318-0.297-14.82,11.312c-46.882,120.796-125.595,115.351-161.472,202.696c-15.006,36.552-5.208,69.469, 1.421,81.955
		c 3.343,6.30, 6.609,10.416, 10.873,9.23c 4.64-1.294, 5.712-6.044, 6.354-14.848c 4.722-73.069, 48.921-97.673, 104.435-123.472
		c 43.797-22.389, 93.628-47.987, 135.391-109.99C 398.299,44.114, 399.21,38.682, 392.074,33.556z M 458.859,108.21
		c-5.503-11.253-22.859-34.569-35.001-46.576c-7.137-7.133-11.186-1.541-13.516,3.04c-9.998,21.256-19.761,39.046-35.507,56.279
		c-2.724,2.764-0.625,6.646, 3.385,6.253c 5.124-0.412, 8.483-0.133, 14.119,2.29c 4.771,2.049, 10.234,8.735, 12.961,18.342
		c 1.984,7.007, 2.078,9.067, 6.372,9.506c 1.066,0.101, 3.02-0.169, 4.205-0.511c 5.226-1.487, 10.837-5.757, 14.938-8.902
		c 10.517-8.033, 26.206-25.765, 28.953-31.503C 461.512,112.774, 459.842,110.296, 458.859,108.21z M 408.695,239.662
		c-0.126,0.904-0.517,3.964-0.513,4.596c 0.011,1.614, 3.327,3.812, 4.877,5.041c 2.347,1.868, 5.065,3.921, 6.844,4.818
		c 0.643,0.404, 1.071-0.53, 1.156-0.716c 6.546-9.935, 4.092-34.492-0.637-46.169c-0.548-1.187-1.549-1.651-1.958-0.779
		c-2.413,5.267-5.993,10.01-10.105,12.614c-0.76,0.59-0.819,1.818-0.76,2.042C 408.924,226.66, 409.61,232.814, 408.695,239.662z
		 M 471.684,151.09c-9.097,6.769-29.312,19.78-48.891,27.001c-1.05,0.234-0.93,1.695-0.561,2.518
		c 1.389,3.074, 2.011,5.919, 2.61,9.558c 0.558,3.405, 3.014,5.679, 4.703,8.41c 5.019,8.015, 7.736,21.986, 8.831,30.702
		c 0.831,8.007, 0.337,16.932-1.398,24.37c-0.741,3.178-3.032,7.272-2.971,10.786c 0.059,3.438, 1.675,7.04, 2.007,11.097
		c 0.969,11.741-13.849,21.53-21.936,25.304c-18.349,8.567-37.846,16.228-57.662,26.682c-11.186,5.901-20.162,18.843-29.138,25.789
		c-9.066,6.994-38.203,18.552-49.846,21.628c-2.632,0.827-3.565,1.922-4.008,4.014c-4.801,22.908-18.323,48.146-43.578,67.662
		c-8.179,6.355, 0.992,9.97, 12.256,10.519c 177.549,6.088, 279.72-157.308, 238.686-296.001C 478.865,155.126, 476.58,147.596, 471.684,151.09z
		M 277.604,323.595c-6.79-0.317-10.601-0.918-15.813-2.52c-5.528-1.70-13.205-5.369-9.919-13.118
		c 2.194-5.206, 9.673-7.446, 15.132-9.253c 6.324-2.092, 13.165-3.859, 18.006-6.559c 2.867-1.608, 5.751-5.896, 9.753-5.385
		c 3.969,0.512, 6.45,8.375, 7.232,12.449c 1.131,5.872, 0.513,13.376-1.511,17.157C 297.133,322.645, 287.593,324.075, 277.604,323.595z" horiz-adv-x="510.8009367681499"  />
<glyph unicode="&#x57;" d="M 409.037,301.04c-19.099,9.348-43.904,14.032-61.958,24.055c-14.291,7.923-25.245,21.013-40.627,28.066
				c-15.689,7.683-39.303,15.403-48.332,17.628c-31.911,7.85-58.713-2.371-68.011-9.728c-17.357-13.718-30.92-36.014-25.626-68.089
				c 2.241-13.562, 6.415-24.967, 13.045-34.348c 26.918-38.016, 77.294-50.367, 117.204-74.348c 1.406-0.956, 2.875-0.702, 3.771,0.519
				c 6.704,9.86, 12.153,17.794, 23.443,22.488c 11.464,4.785, 29.502,3.161, 45.055,2.401c 16.071-0.773, 33.415,0.733, 39.238,9.04
				c 6.965,9.918, 6.558,29.899-4.068,36.003c-5.703,3.285-14.206,3.435-20.406,6.294c-4.526,2.093-8.016,6.006-10.511,11.447
				c-2.093,4.551-4.038,12.026-1.326,16.903c 2.498,4.495, 8.793,3.222, 13.851,2.047c 10.024-2.30, 26.772-4.741, 36.414-0.512
				C 423.037,292.361, 412.88,299.162, 409.037,301.04z M 308.374,306.524c-0.857-4.47-3.583-13.104-7.944-13.665
				c-4.391-0.562-7.555,4.146-10.702,5.911c-5.316,2.964-12.828,4.904-19.769,7.201c-5.991,1.984-14.203,4.443-16.608,10.158
				c-3.612,8.508, 4.821,12.535, 10.89,14.401c 5.719,1.759, 9.901,2.42, 17.358,2.767c 10.965,0.526, 21.437-1.044, 25.118-7.937
				C 308.936,321.208, 309.615,312.97, 308.374,306.524zM 5.382,274.199c 0.576,3.254, 0.828,4.16, 2.788,6.718c 3.105,4.642, 40.776,46.915, 99.166,57.157
		c 7.683,1.102, 13.221,0.57, 14.481-2.51c 2.205-5.398-2.266-8.511-7.646-11.626c-93.648-55.968-87.009-139.172-87.905-173.208
		c 0.282-13.92-9.772-16.458-12.284-9.898C 2.993,170.812-6.248,217.801, 5.382,274.199zM 68.75,396.771c 1.92,2.035, 3.168,2.97, 6.016,3.773c 35.965,8.934, 72.043,3.246, 98.025-8.34
		c 5.835-2.581, 8.463-6.242, 4.632-8.698c-4.87-2.831-19.632-12.431-27.791-20.033c-2.373-2.044-6.604-2.152-9.098-1.821
		c-30.458,4.017-46.277,6.387-92.065-10.969c-7.026-2.954-13.345,1.065-10.111,6.588C 44.456,368.188, 58.63,386.454, 68.75,396.771zM 127.931,432.705c-7.874,0.896-7.986,6.656-4.658,8.90c 8.556,5.995, 22.44,13.233, 36.402,18.77
		c 4.185,1.655, 6.343,2.088, 10.173,1.702c 10.29-1.03, 27.332-7.958, 46.884-21.908c 23.453-16.731, 44.311-48.519, 30.36-45.947
		c-8.822,1.529-4.981,1.109-15.323,2.244c-10.569,0.937-17.504-0.148-22.375,0.349c-2.123,0.173-3.794,1.587-5.289,2.808
		C 184.313,417.37, 161.449,428.634, 127.931,432.705zM 504.689,154.874c-2.11-6.589-4.619-14.852-9.993-11.02c-9.986,7.43-32.178,21.712-53.671,29.639
		c-1.153,0.258-1.023,1.861-0.617,2.764c 1.523,3.377, 2.207,6.499, 2.866,10.491c 0.611,3.739, 3.307,6.235, 5.161,9.233
		c 5.51,8.799, 8.494,24.135, 9.697,33.704c 0.913,8.791, 0.369,18.587-1.536,26.752c-0.813,3.489-3.329,7.985-3.261,11.841
		c 0.064,3.774, 1.84,7.727, 2.204,12.182c 1.062,12.889-15.205,23.637-24.081,27.777c-20.144,9.405-41.547,17.815-63.301,29.292
		c-12.279,6.477-22.134,20.686-31.988,28.31c-9.952,7.68-41.939,20.367-54.72,23.742c-2.889,0.909-3.912,2.109-4.401,4.407
		c-5.269,25.149-20.116,52.855-47.837,74.278c-8.979,6.977, 1.089,10.945, 13.454,11.548C 437.574,486.50, 549.736,307.13, 504.689,154.874z
		M 425.547,241.089c-0.14,0.991-0.566,4.351-0.563,5.045c 0.013,1.771, 3.653,4.184, 5.354,5.533
		c 2.576,2.051, 5.56,4.304, 7.514,5.289c 0.705,0.444, 1.174-0.581, 1.269-0.786c 7.185-10.907, 4.493-37.864-0.699-50.682
		c-0.601-1.303-1.701-1.813-2.15-0.857c-2.648,5.782-6.579,10.989-11.091,13.847c-0.835,0.645-0.899,1.993-0.835,2.245
		C 425.798,226.815, 426.551,233.569, 425.547,241.089zM 336.69,174.737c 1.55,4.468, 3.35,7.101, 6.823,9.273c 6.538,4.105, 17.405,4.279, 27.893,4.998
		c 10.161,0.682, 21.019,1.281, 28.249,4.619c 4.378,2.014, 8.754,7.744, 15.513,4.822c 3.201-1.377, 4.946-4.31, 5.899-7.229
		c 1.074-3.249, 1.855-6.533, 1.522-10.891c-0.974-12.573-11.187-18.713-13.024-30.468c-0.173-1.817-0.481-4.446-1.525-5.49
		c-7.796-7.937-23.216-6.269-37.158-4.865c-4.992,0.496-9.925,0.631-13.301,2.238c-2.435,1.142-4.621,3.462-6.645,5.344
		c-4.462,4.133-6.982,7.175-11.455,12.189c-1.515,1.699-4.951,4.774-5.177,6.64C 334.109,167.711, 336.028,172.852, 336.69,174.737zM 92.542,26.538c-5.117,4.192-7.32,7.73-10.261,12.695c-23.873,38.153-37.251,173.282-6.489,219.113
		c 9.788,16.058, 20.158,8.654, 16.71-3.758c-5.89-27.864-2.279-43.477, 11.271-73.714c 21.293-44.934, 87.02-107.317, 104.42-129.942
		c 29.826-38.804, 39.753-67.075, 39.62-74.69c-0.162-5.842-1.282-9.566-11.519-8.703C 182.285-28.178, 130.076-5.789, 92.542,26.538zM 123.415,208.763c-16.472,40.129-5.717,76.262, 1.562,89.97c 3.668,6.917, 7.255,11.434, 11.938,10.135
		c 5.094-1.421, 6.272-6.636, 6.974-16.302c 5.182-80.217, 53.703-107.224, 114.644-135.545c 48.081-24.577, 102.786-52.679, 148.63-120.745
		c 6.94-9.829, 7.941-15.79, 0.108-21.419c-27.954-19.083-53.275-32.385-90.325-41.024c-5.575-1.306-11.328-0.325-16.269,12.417
		C 249.209,118.858, 162.798,112.882, 123.415,208.763zM 442.192,45.733c-7.835-7.833-12.281-1.695-14.838,3.337c-10.975,23.334-21.694,42.862-38.979,61.779
		c-2.991,3.034-0.684,7.297, 3.716,6.862c 5.626-0.45, 9.312-0.142, 15.50,2.516c 5.238,2.249, 11.236,9.593, 14.227,20.135
		c 2.18,7.693, 2.282,9.958, 6.996,10.434c 1.17,0.111, 3.316-0.183, 4.617-0.557c 5.737-1.635, 11.898-6.323, 16.398-9.776
		c 11.545-8.82, 28.768-28.285, 31.784-34.583c 1.915-4.011, 0.082-6.73-0.997-9.02C 474.574,84.509, 455.521,58.91, 442.192,45.733z" horiz-adv-x="513.4182825484764"  />
<glyph unicode="&#x62;" d="M 275.402,388.851c-10.671-2.668-28.134-2.668-38.805,0.00L 19.403,443.149C 8.731,445.817,0.00,439.00,0.00,428.00l0.00-344.00 
			c0.00-11.00, 8.731-22.183, 19.403-24.851l 217.194-54.299c 10.671-2.668, 28.134-2.668, 38.805,0.00l 217.195,54.299
			C 503.269,61.817, 512.00,73.00, 512.00,84.00L 512.00,428.00 c0.00,11.00-8.731,17.817-19.402,15.149L 275.402,388.851z M 240.00,60.866
			c0.00-11.00-8.739-17.849-19.42-15.22L 51.42,87.284C 40.739,89.913, 32.00,101.064, 32.00,112.064L 32.00,387.135 c0.00,11.00, 8.739,17.849, 19.42,15.22
			l 169.159-41.639c 10.681-2.629, 19.42-13.78, 19.42-24.78L 239.999,60.866 z M 480.00,106.414c0.00-11.00-8.783-21.966-19.518-24.367l-168.965-37.812
			C 280.783,41.834, 272.00,48.868, 272.00,59.868l0.00,275.90 c0.00,11.00, 8.783,21.965, 19.518,24.368l 168.965,37.81
			C 471.217,400.348, 480.00,393.313, 480.00,382.313L 480.00,106.414 zM 75.249,313.399l 97.417-23.827c 1.596-0.391, 3.194-0.578, 4.767-0.578c 9.001,0.00, 17.178,6.121, 19.412,15.253
		c 2.625,10.729-3.946,21.555-14.676,24.179l-97.417,23.827c-10.727,2.626-21.555-3.947-24.179-14.676
		C 57.948,326.849, 64.519,316.023, 75.249,313.399zM 75.249,249.095l 97.417-23.826c 1.596-0.391, 3.194-0.578, 4.767-0.578c 9.001,0.00, 17.178,6.121, 19.412,15.253
		c 2.625,10.729-3.946,21.555-14.676,24.179L 84.751,287.95c-10.727,2.626-21.555-3.947-24.179-14.676
		C 57.948,262.545, 64.519,251.719, 75.249,249.095zM 75.249,184.791l 97.417-23.826c 1.596-0.391, 3.194-0.578, 4.767-0.578c 9.001,0.00, 17.178,6.121, 19.412,15.253
		c 2.625,10.729-3.946,21.555-14.676,24.179l-97.417,23.826c-10.727,2.627-21.555-3.946-24.179-14.676
		C 57.948,198.24, 64.519,187.414, 75.249,184.791zM 75.249,120.486l 97.417-23.826c 1.596-0.391, 3.194-0.578, 4.767-0.578c 9.001,0.00, 17.178,6.121, 19.412,15.253
		c 2.625,10.729-3.946,21.555-14.676,24.179L 84.751,159.34c-10.727,2.627-21.555-3.946-24.179-14.676
		C 57.948,133.936, 64.519,123.109, 75.249,120.486zM 334.562,288.995c 1.574,0.00, 3.172,0.187, 4.768,0.578l 97.416,23.827c 10.73,2.624, 17.301,13.45, 14.676,24.179
		c-2.623,10.729-13.451,17.302-24.178,14.676l-97.417-23.827c-10.729-2.624-17.30-13.45-14.676-24.179
		C 317.385,295.116, 325.562,288.995, 334.562,288.995zM 334.562,224.691c 1.574,0.00, 3.172,0.188, 4.768,0.578l 97.416,23.826c 10.73,2.624, 17.301,13.45, 14.676,24.179
		c-2.623,10.729-13.451,17.302-24.178,14.676l-97.417-23.827c-10.729-2.624-17.30-13.45-14.676-24.179
		C 317.385,230.812, 325.562,224.691, 334.562,224.691zM 334.562,160.387c 1.574,0.00, 3.172,0.188, 4.768,0.578l 97.416,23.826c 10.73,2.623, 17.301,13.449, 14.676,24.178
		c-2.623,10.729-13.451,17.303-24.178,14.676l-97.417-23.826c-10.729-2.624-17.30-13.449-14.676-24.179
		C 317.385,166.508, 325.562,160.387, 334.562,160.387zM 334.562,96.082c 1.574,0.00, 3.172,0.188, 4.768,0.578l 97.416,23.826c 10.73,2.623, 17.301,13.449, 14.676,24.178
		c-2.623,10.729-13.451,17.303-24.178,14.676l-97.417-23.826c-10.729-2.624-17.30-13.449-14.676-24.179
		C 317.385,102.203, 325.562,96.082, 334.562,96.082z"  />
<glyph unicode="&#x6d;" d="M 238.58,480.502L 633.198,480.502L 633.198,204.272L 238.58,204.272zM 199.117,362.116L 120.194,362.116L 120.194,164.807L 120.194,85.884L 199.117,85.884L 514.812,85.884L 514.812,164.807L 199.117,164.807 	zM 80.73,243.731L 1.807,243.731L 1.807,46.421L 1.807-32.502L 80.73-32.502L 396.427-32.502L 396.427,46.421L 80.73,46.421 	z" horiz-adv-x="633"  />
<glyph unicode="&#x4d;" d="M 438.857,96.00l0.00-36.571 q0.00-7.429 -5.429-12.857t-12.857-5.429l-402.286,0.00 q-7.429,0.00 -12.857,5.429t-5.429,12.857l0.00,36.571 q0.00,7.429 5.429,12.857t 12.857,5.429l 402.286,0.00 q 7.429,0.00 12.857-5.429t 5.429-12.857zM 438.857,242.286l0.00-36.571 q0.00-7.429 -5.429-12.857t-12.857-5.429l-402.286,0.00 q-7.429,0.00 -12.857,5.429t-5.429,12.857l0.00,36.571 q0.00,7.429 5.429,12.857t 12.857,5.429l 402.286,0.00 q 7.429,0.00 12.857-5.429t 5.429-12.857zM 438.857,388.571l0.00-36.571 q0.00-7.429 -5.429-12.857 t-12.857-5.429l-402.286,0.00 q-7.429,0.00 -12.857,5.429t-5.429,12.857l0.00,36.571 q0.00,7.429 5.429,12.857t 12.857,5.429l 402.286,0.00 q 7.429,0.00 12.857-5.429t 5.429-12.857z" horiz-adv-x="438.85714285714283" />
<glyph unicode="&#x46;" d="M 426.672,480.00L 85.342,480.00 C 38.406,480.00,0.00,441.593,0.00,394.656l0.00-341.313 C0.00,6.374, 38.406-32.00, 85.342-32.00l 341.33,0.001
	c 46.938,0.00, 85.328,38.373, 85.328,85.344L 512.00,394.656 C 512.00,441.593, 473.609,480.00, 426.672,480.00z M 435.296,224.00L 352.00,224.00 l0.00-224.00 l-96.00,0.00 L 256.00,224.00 l-46.263,0.00 l0.00,73.282 L 256.00,297.282 
	l0.00,47.593 C 256.00,409.546, 283.896,448.00, 359.935,448.00l 87.622,0.00 l0.00-79.285 l-71.565,0.00 c-21.241,0.035-23.876-11.076-23.876-31.756L 352.00,297.282l 96.00,0.00 
	L 435.296,224.00z"  />
<glyph unicode="&#x54;" d="M 426.671,480.00L 85.343,480.00 C 38.406,480.00,0.00,441.595,0.00,394.655l0.00-341.311 C0.00,6.375, 38.406-32.00, 85.343-32.00l 341.328,0.00 
	C 473.609-32.00, 512.00,6.375, 512.00,53.345L 512.00,394.655 C 512.00,441.595, 473.609,480.00, 426.671,480.00z M 419.026,309.083
	c 0.164-3.671, 0.245-7.364, 0.245-11.074c0.00-113.107-84.608-243.534-239.329-243.534c-47.502,0.00-91.717,14.174-128.943,38.459
	c 6.58-0.794, 13.276-1.197, 20.065-1.197c 39.411,0.00, 75.679,13.685, 104.467,36.641c-36.808,0.69-67.872,25.438-78.577,59.441
	c 5.137-1.00, 10.406-1.537, 15.826-1.537c 7.672,0.00, 15.103,1.048, 22.16,3.004c-38.48,7.866-67.475,42.458-67.475,83.928
	c0.00,0.361,0.00,0.719, 0.008,1.076c 11.34-6.41, 24.312-10.26, 38.10-10.705c-22.571,15.349-37.421,41.546-37.421,71.244
	c0.00,15.685, 4.147,30.389, 11.389,43.029c 41.487-51.785, 103.468-85.86, 173.377-89.431c-1.435,6.266-2.179,12.798-2.179,19.507
	c0.00,47.269, 37.663,85.59, 84.115,85.59c 24.195,0.00, 46.059-10.393, 61.401-27.029c 19.16,3.838, 37.162,10.96, 53.416,20.771
	c-6.281-19.988-19.617-36.761-36.983-47.355c 17.013,2.069, 33.226,6.67, 48.31,13.477C 449.725,336.226, 435.463,321.15, 419.026,309.083
	z"  />
<glyph unicode="&#x50;" d="M 426.675,480.00L 85.324,480.00 C 38.199,480.00,0.00,441.79,0.00,394.657l0.00-341.315 C0.00,6.209, 38.199-32.00, 85.324-32.00l 341.351,0.00 
	C 473.80-32.00, 512.00,6.209, 512.00,53.342L 512.00,394.657 C 512.00,441.79, 473.80,480.00, 426.675,480.00z M 280.822,137.941
	c-23.26,1.807-33.021,13.328-51.252,24.404c-10.03-52.589-22.281-103.009-58.569-129.344
	c-11.202,79.484, 16.447,139.182, 29.285,202.557c-21.893,36.853, 2.635,111.017, 48.81,92.737
	c 56.813-22.474-49.20-137.004, 21.966-151.308c 74.31-14.934, 104.644,128.929, 58.571,175.712
	c-66.579,67.553-193.799,1.54-178.155-95.178c 3.807-23.646, 28.236-30.819, 9.762-63.451c-42.61,9.446-55.325,43.051-53.688,87.856
	c 2.634,73.337, 65.892,124.682, 129.343,131.783c 80.242,8.982, 155.553-29.454, 165.953-104.938
	C 414.553,223.577, 366.623,131.307, 280.822,137.941z"  />
<glyph unicode="&#x20;" horiz-adv-x="256" />
<glyph class="hidden" unicode="&#xf000;" d="M0,480L 512 -32L0 -32 z" horiz-adv-x="0" />
</font>
</defs>
</svg>
