<?xml version="1.0" encoding="UTF-8" standalone="no"?>
<svg width="43px" height="54px" viewBox="0 0 43 54" version="1.1" xmlns="http://www.w3.org/2000/svg" xmlns:xlink="http://www.w3.org/1999/xlink" xmlns:sketch="http://www.bohemiancoding.com/sketch/ns">
    <!-- Generator: Sketch 3.2.2 (9983) - http://www.bohemiancoding.com/sketch -->
    <title>icon-toponym</title>
    <desc>Created with Sketch.</desc>
    <defs></defs>
    <g id="Page-1" stroke="none" stroke-width="1" fill="none" fill-rule="evenodd" sketch:type="MSPage">
        <g id="Slices" sketch:type="MSLayerGroup" transform="translate(-122.000000, -195.000000)"></g>
        <g id="Triangle-1-+-Rectangle-10" sketch:type="MSLayerGroup" transform="translate(4.000000, 2.000000)">
            <polygon id="Triangle-1" fill="#A1170D" sketch:type="MSShapeGroup" transform="translate(22.000000, 16.000000) rotate(90.000000) translate(-22.000000, -16.000000) " points="22 1 37 31 7 31 "></polygon>
            <rect id="Rectangle-9" fill="#000000" sketch:type="MSShapeGroup" x="6" y="1" width="1" height="44"></rect>
            <rect id="Rectangle-10" fill-opacity="0.7" fill="#FFFFFF" sketch:type="MSShapeGroup" x="5" y="1" width="1" height="44"></rect>
            <g id="Rectangle-11-+-Rectangle-12" transform="translate(0.000000, 42.000000)" fill="#FFFFFF" sketch:type="MSShapeGroup">
                <rect id="Rectangle-11" transform="translate(6.000000, 3.500000) rotate(-30.000000) translate(-6.000000, -3.500000) " x="-1" y="3" width="14" height="1"></rect>
                <rect id="Rectangle-12" transform="translate(6.000000, 3.500000) rotate(30.000000) translate(-6.000000, -3.500000) " x="-1" y="3" width="14" height="1"></rect>
            </g>
            <g id="Rectangle-11-+-Rectangle-13" transform="translate(0.000000, 41.000000)" fill="#000000" sketch:type="MSShapeGroup">
                <rect id="Rectangle-11" transform="translate(6.000000, 3.500000) rotate(-30.000000) translate(-6.000000, -3.500000) " x="-1" y="3" width="14" height="1"></rect>
                <rect id="Rectangle-12" transform="translate(6.000000, 3.500000) rotate(30.000000) translate(-6.000000, -3.500000) " x="-1" y="3" width="14" height="1"></rect>
            </g>
        </g>
    </g>
</svg>