<?xml version="1.0" encoding="utf-8"?>
<!-- Generator: Adobe Illustrator 17.1.0, SVG Export Plug-In . SVG Version: 6.00 Build 0)  -->
<!DOCTYPE svg PUBLIC "-//W3C//DTD SVG 1.1//EN" "http://www.w3.org/Graphics/SVG/1.1/DTD/svg11.dtd">
<svg version="1.1" id="Layer_1" xmlns="http://www.w3.org/2000/svg" xmlns:xlink="http://www.w3.org/1999/xlink" x="0px" y="0px"
	 viewBox="0 0 470.2 58.6" enable-background="new 0 0 470.2 58.6" xml:space="preserve">
<g>
	<path fill="#D9D9D9" d="M4.6,55.4V4.5H15c4.2,0,7.4,1.2,9.7,3.5c2.3,2.3,3.4,5.6,3.4,9.8c0,2.5-0.4,4.8-1.3,6.7
		c-0.9,1.9-2.3,3.6-4.1,4.9c2.1,1.2,3.6,2.8,4.6,4.8c1,2,1.5,4.5,1.5,7.6c0,4.6-1,8.1-3.1,10.3s-5.2,3.3-9.5,3.3H4.6z M12.4,25.7
		h3.2c1.4,0,2.5-0.6,3.3-1.8c0.8-1.2,1.2-2.9,1.2-5.1c0-2.4-0.4-4.2-1.2-5.2c-0.8-1.1-2.1-1.6-4-1.6h-2.5V25.7z M12.4,48h3.4
		c1.7,0,2.9-0.6,3.7-1.8c0.8-1.2,1.2-3,1.2-5.5c0-2.8-0.4-4.7-1.3-5.9C18.4,33.6,17,33,14.9,33h-2.5V48z"/>
	<path fill="#D9D9D9" d="M34.5,4.5h8v39.4c0,1.5,0.4,2.7,1.1,3.5c0.8,0.9,1.8,1.3,3,1.3c1.2,0,2.2-0.4,2.9-1.3
		c0.7-0.9,1.1-2.1,1.1-3.6V4.5h8v38c0,4.5-1,7.9-3.1,10.3c-2.1,2.4-5,3.6-8.9,3.6c-3.9,0-6.9-1.2-9-3.6c-2.1-2.4-3.1-5.9-3.1-10.5
		V4.5z"/>
	<path fill="#D9D9D9" d="M65.6,11.5v-7h7.1v7H65.6z M65.6,55.4V17.8h7.1v37.5H65.6z"/>
	<path fill="#D9D9D9" d="M80.1,55.4V4.5h7.8V48H100v7.3H80.1z"/>
	<path fill="#D9D9D9" d="M104.4,55.4V4.5h11.1c4.3,0,7.5,1.1,9.6,3.4c2.1,2.3,3.1,5.8,3.1,10.5v22.7c0,4.9-1,8.5-3,10.8
		s-5.1,3.4-9.4,3.4H104.4z M112.2,47.9h4c1.4,0,2.4-0.4,3.1-1.3c0.7-0.9,1-2.2,1-4V18.1c0-2.1-0.5-3.6-1.5-4.6c-1-1-2.6-1.5-4.7-1.5
		h-1.8V47.9z"/>
	<path fill="#D9D9D9" d="M134.7,11.5v-7h7.1v7H134.7z M134.7,55.4V17.8h7.1v37.5H134.7z"/>
	<path fill="#D9D9D9" d="M149.2,55.4V4.5h7l9.9,30.4c0.2,0.6,0.4,1.4,0.7,2.3c0.3,1,0.5,2,0.8,3.1c-0.3-1.5-0.5-2.8-0.6-4.1
		c-0.2-1.3-0.2-2.2-0.2-2.8V4.5h7.3v50.8h-7.3l-9.6-28.1c0-0.1-0.1-0.3-0.2-0.5c-0.7-1.9-1.1-3.6-1.5-5c0.3,1.8,0.5,3.3,0.7,4.4
		c0.2,1.2,0.2,2,0.2,2.6v26.6H149.2z"/>
	<path fill="#D9D9D9" d="M181.2,42.3V16.3c0-4,1.1-7.1,3.3-9.4c2.2-2.3,5.2-3.4,9-3.4c3.7,0,6.5,1.1,8.4,3.3
		c1.9,2.2,2.9,5.4,2.9,9.7v4.7h-7.6v-5.4c0-1.8-0.3-3.1-1-4s-1.7-1.3-3-1.3s-2.3,0.4-3,1.3s-1,2.2-1,4v28.4c0,1.8,0.3,3.1,1,4
		c0.7,0.9,1.7,1.3,3,1.3s2.3-0.4,3-1.3c0.7-0.9,1-2.2,1-4v-7.9h-4.7v-6.5h12.3v25.6h-3.8l-1.5-3.5c-0.9,1.6-1.9,2.7-3.1,3.5
		s-2.7,1.1-4.4,1.1c-3.5,0-6.2-1.2-8-3.6C182.1,50.4,181.2,46.9,181.2,42.3z"/>
	<path fill="#D9D9D9" d="M226.1,11.5v-7h7.1v7H226.1z M226.1,55.4V17.8h7.1v37.5H226.1z"/>
	<path fill="#D9D9D9" d="M240.5,55.4V4.5h7l9.9,30.4c0.2,0.6,0.4,1.4,0.7,2.3c0.3,1,0.5,2,0.8,3.1c-0.3-1.5-0.5-2.8-0.6-4.1
		c-0.2-1.3-0.2-2.2-0.2-2.8V4.5h7.3v50.8h-7.3l-9.6-28.1c0-0.1-0.1-0.3-0.2-0.5c-0.7-1.9-1.1-3.6-1.5-5c0.3,1.8,0.5,3.3,0.7,4.4
		c0.2,1.2,0.2,2,0.2,2.6v26.6H240.5z"/>
	<path fill="#D9D9D9" d="M271.1,42.5l7.5-1.1c0.1,2.6,0.6,4.5,1.5,5.7s2.1,1.8,3.7,1.8c1.4,0,2.6-0.5,3.5-1.4
		c0.9-0.9,1.3-2.1,1.3-3.6c0-2.6-2.1-6.1-6.3-10.3c-0.3-0.3-0.6-0.6-0.7-0.7c-4.1-4.1-6.8-7.3-7.9-9.5s-1.8-4.6-1.8-7
		c0-3.6,1.2-6.6,3.5-9.1c2.4-2.4,5.2-3.7,8.6-3.7c3.3,0,6,1.1,8.1,3.4c2.1,2.3,3.3,5.3,3.6,9.2l-7.7,1.1c-0.1-2.3-0.5-3.9-1.2-4.9
		s-1.7-1.5-3.1-1.5c-1.3,0-2.3,0.4-3,1.3c-0.8,0.9-1.1,2-1.1,3.4c0,3,2.5,6.8,7.4,11.6c0.2,0.2,0.3,0.3,0.5,0.5
		c3.6,3.5,6,6.4,7.1,8.6c1.1,2.2,1.7,4.7,1.7,7.5c0,3.7-1.1,6.7-3.4,9.1c-2.3,2.4-5.2,3.6-8.7,3.6c-3.9,0-7-1.2-9.3-3.7
		C272.6,50.3,271.3,46.9,271.1,42.5z"/>
	<path fill="#D9D9D9" d="M301.7,55.4V4.5h11.5c4.3,0,7.4,1.2,9.3,3.5s2.9,6.1,2.9,11.2c0,4.8-0.9,8.6-2.8,11.3
		c-1.9,2.8-4.4,4.1-7.7,4.1h-5.4v20.7H301.7z M309.5,27.4h3.1c1.8,0,3.1-0.6,3.8-1.7c0.7-1.1,1-3.2,1-6.4c0-2.9-0.4-4.9-1.1-5.9
		s-2.1-1.6-4-1.6h-2.8V27.4z"/>
	<path fill="#D9D9D9" d="M330.9,55.4V4.5h20.5v7.3h-12.6v13.3h9.1v7.3h-9.1v15.2h12.6v7.6H330.9z"/>
	<path fill="#D9D9D9" d="M356.5,42.3V16.3c0-4,1.1-7.1,3.3-9.4c2.2-2.3,5.2-3.4,9-3.4c3.6,0,6.5,1.2,8.6,3.5
		c2.1,2.3,3.2,5.5,3.2,9.5v4.9h-8.1v-5.6c0-1.8-0.3-3.1-1-4s-1.7-1.3-3-1.3s-2.3,0.4-3,1.3s-1,2.2-1,4v28.4c0,1.8,0.3,3.1,1,4
		c0.7,0.9,1.7,1.3,3,1.3s2.3-0.4,3-1.3c0.7-0.9,1-2.2,1-4v-6.9h8.1v5.3c0,4.5-1,7.9-3.1,10.3c-2.1,2.4-5.1,3.6-8.9,3.6
		c-4,0-7-1.2-9-3.6S356.5,47,356.5,42.3z"/>
	<path fill="#D9D9D9" d="M382.8,11.9V4.5h24.1v7.3h-8.2v43.5h-7.8V11.9H382.8z"/>
	<path fill="#D9D9D9" d="M409.6,16.3c0-4,1.1-7.1,3.3-9.4c2.2-2.3,5.2-3.4,9-3.4c3.6,0,6.5,1.2,8.6,3.5c2.1,2.3,3.2,5.5,3.2,9.5
		v26.1c0,4.5-1,7.9-3.1,10.3c-2.1,2.4-5.1,3.6-8.9,3.6c-3.9,0-6.9-1.2-8.9-3.6c-2.1-2.4-3.1-5.9-3.1-10.5V16.3z M425.7,44.1V15.8
		c0-1.8-0.3-3.1-1-4s-1.7-1.3-3-1.3s-2.3,0.4-3,1.3s-1,2.2-1,4v28.4c0,1.8,0.3,3.1,1,4c0.7,0.9,1.7,1.3,3,1.3s2.3-0.4,3-1.3
		C425.3,47.2,425.7,45.9,425.7,44.1z"/>
	<path fill="#D9D9D9" d="M448.6,34v21.4h-7.8V4.5h11.5c4.3,0,7.4,1.2,9.4,3.5s2.9,6.1,2.9,11.2c0,3.2-0.4,5.8-1.2,7.7
		s-2,3.6-3.8,4.8l5.8,23.6h-8.1L452.4,34H448.6z M448.6,11.9v14.8h3.1c1.8,0,3.1-0.5,3.8-1.6s1.1-3.1,1.1-6.1c0-2.7-0.4-4.5-1.1-5.5
		s-2.1-1.5-4-1.5H448.6z"/>
</g>
</svg>
