<?xml version="1.0" encoding="utf-8"?>
<!-- Generator: Adobe Illustrator 15.1.0, SVG Export Plug-In . SVG Version: 6.00 Build 0)  -->
<!DOCTYPE svg PUBLIC "-//W3C//DTD SVG 1.1//EN" "http://www.w3.org/Graphics/SVG/1.1/DTD/svg11.dtd">
<svg version="1.1" id="Layer_1" xmlns="http://www.w3.org/2000/svg" xmlns:xlink="http://www.w3.org/1999/xlink" x="0px" y="0px"
	 width="348.467px" height="302.746px" viewBox="-15.858 -18.677 348.467 302.746"
	 enable-background="new -15.858 -18.677 348.467 302.746" xml:space="preserve">
<rect x="9.295" y="42.259" transform="matrix(0.8746 0.4848 -0.4848 0.8746 84.1888 -60.1444)" fill="#E8E4E2" width="298.161" height="180.873"/>
<g>
	<g>
		<path d="M54.914,77.91L84.01,25.42l10.709,5.937c4.307,2.388,6.974,5.424,8,9.108c1.025,3.686,0.332,7.705-2.083,12.062
			c-1.448,2.614-3.18,4.651-5.192,6.114c-2.014,1.463-4.371,2.378-7.074,2.746c1.47,2.428,2.146,4.961,2.027,7.601
			c-0.119,2.639-1.05,5.532-2.793,8.679c-2.656,4.791-5.671,7.746-9.045,8.867c-3.372,1.119-7.273,0.451-11.701-2.003L54.914,77.91z
			 M67.143,74.77l3.484,1.932c1.742,0.966,3.354,1.068,4.836,0.308c1.48-0.761,2.939-2.436,4.375-5.025
			c1.582-2.855,2.258-5.146,2.029-6.871c-0.231-1.725-1.41-3.178-3.54-4.357l-2.613-1.449L67.143,74.77z M79.919,51.719l3.267,1.812
			c1.477,0.818,2.975,0.827,4.495,0.024c1.52-0.803,2.911-2.341,4.173-4.616c1.381-2.492,1.963-4.526,1.744-6.103
			c-0.217-1.575-1.27-2.888-3.157-3.934l-2.613-1.449L79.919,51.719z"/>
		<path d="M114.901,42.543l8.276,4.587l-22.536,40.656c-0.845,1.525-1.127,2.959-0.843,4.303c0.283,1.343,1.066,2.37,2.35,3.081
			c1.282,0.711,2.535,0.82,3.758,0.327c1.222-0.492,2.262-1.514,3.121-3.062l22.535-40.656l8.24,4.567l-21.751,39.24
			c-2.562,4.623-5.603,7.58-9.118,8.874c-3.518,1.293-7.271,0.833-11.265-1.381c-4.042-2.24-6.442-5.199-7.202-8.879
			c-0.76-3.68,0.175-7.892,2.804-12.635L114.901,42.543z"/>
		<path d="M117.858,112.8l21.47-38.732l7.297,4.045l-21.471,38.73L117.858,112.8z M142.95,67.535l4.004-7.225l7.296,4.045
			l-4.004,7.224L142.95,67.535z"/>
		<path d="M132.814,121.09l29.096-52.489l8.021,4.446l-24.891,44.903l12.56,6.962l-4.205,7.587L132.814,121.09z"/>
		<path d="M157.934,135.014l29.096-52.489l11.509,6.378c4.452,2.468,7.101,5.47,7.938,9.004c0.842,3.535-0.102,7.759-2.824,12.671
			l-12.998,23.449c-2.83,5.106-5.905,8.258-9.227,9.455c-3.32,1.194-7.195,0.565-11.623-1.889L157.934,135.014z M170.242,131.729
			l4.102,2.274c1.428,0.791,2.735,0.931,3.922,0.417c1.187-0.513,2.301-1.714,3.349-3.601l14.004-25.266
			c1.194-2.153,1.549-4.021,1.065-5.602c-0.484-1.581-1.84-2.989-4.065-4.223l-1.853-1.026L170.242,131.729z"/>
		<path d="M189.225,152.359l21.471-38.731l7.296,4.044l-21.47,38.732L189.225,152.359z M214.316,107.093l4.004-7.224l7.297,4.044
			l-4.006,7.224L214.316,107.093z"/>
		<path d="M204.182,160.65l29.096-52.49l7.26,4.024l-7.112,37.058c-0.143,0.712-0.349,1.642-0.618,2.787
			c-0.273,1.146-0.58,2.369-0.92,3.668c0.579-1.674,1.143-3.203,1.691-4.592c0.548-1.389,0.99-2.386,1.324-2.99l16.562-29.875
			l7.586,4.205l-29.096,52.491l-7.586-4.205l6.202-34.478c0.019-0.147,0.06-0.362,0.121-0.646c0.422-2.359,0.865-4.36,1.332-6
			c-0.729,2-1.354,3.654-1.873,4.964c-0.521,1.31-0.936,2.242-1.243,2.799l-15.212,27.441L204.182,160.65z"/>
		<path d="M244.715,165.512l14.91-26.897c2.293-4.138,5.217-6.757,8.768-7.857c3.553-1.099,7.312-0.55,11.281,1.65
			c3.823,2.118,6.098,4.866,6.82,8.241c0.724,3.375-0.143,7.276-2.598,11.705l-2.676,4.828l-7.805-4.326l3.078-5.555
			c1.006-1.814,1.41-3.371,1.212-4.667c-0.199-1.297-0.987-2.327-2.368-3.092c-1.379-0.765-2.671-0.89-3.876-0.369
			c-1.205,0.519-2.31,1.687-3.315,3.5l-16.237,29.295c-1.007,1.814-1.414,3.377-1.222,4.687c0.19,1.309,0.978,2.345,2.356,3.109
			c1.379,0.764,2.674,0.881,3.888,0.352c1.211-0.531,2.318-1.704,3.325-3.521l4.548-8.202l-4.9-2.718l3.701-6.68l12.705,7.043
			l-14.668,26.463l-3.885-2.153l0.452-4.494c-1.795,1.125-3.536,1.727-5.224,1.803c-1.688,0.076-3.428-0.381-5.217-1.373
			c-3.607-1.999-5.676-4.774-6.205-8.326C241.036,174.404,242.086,170.256,244.715,165.512z"/>
		<path d="M25.379,128.31l18.186-32.809l6.18,3.426l-18.186,32.809L25.379,128.31z M46.633,89.966l3.392-6.118l6.18,3.426
			l-3.392,6.118L46.633,89.966z"/>
		<path d="M38.047,135.332l24.646-44.461l6.149,3.408l-6.024,31.391c-0.12,0.604-0.294,1.391-0.525,2.361
			c-0.23,0.972-0.489,2.007-0.776,3.106c0.489-1.417,0.967-2.713,1.432-3.889c0.465-1.176,0.839-2.021,1.123-2.534L78.098,99.41
			l6.426,3.562l-24.646,44.461l-6.427-3.562l5.255-29.203c0.016-0.126,0.05-0.308,0.102-0.547c0.358-1.998,0.734-3.693,1.13-5.082
			c-0.618,1.694-1.147,3.096-1.588,4.205c-0.441,1.109-0.791,1.899-1.053,2.371l-12.885,23.243L38.047,135.332z"/>
		<path d="M71.053,138.875l7.095,2.646c-1.127,2.322-1.62,4.228-1.478,5.713c0.141,1.484,0.93,2.625,2.364,3.421
			c1.25,0.692,2.483,0.86,3.7,0.504c1.216-0.357,2.183-1.183,2.898-2.474c1.284-2.316,1.098-6.332-0.558-12.047
			c-0.129-0.447-0.225-0.781-0.288-1.004c-1.608-5.608-2.388-9.664-2.339-12.17c0.049-2.506,0.676-4.844,1.88-7.017
			c1.738-3.137,4.231-5.205,7.479-6.205c3.247-1,6.357-0.677,9.33,0.972c2.89,1.602,4.709,3.902,5.458,6.903
			c0.748,3.002,0.318,6.267-1.29,9.797l-7.231-2.763c0.979-2.056,1.415-3.678,1.308-4.861c-0.106-1.186-0.765-2.113-1.975-2.783
			c-1.106-0.613-2.201-0.731-3.281-0.353c-1.081,0.38-1.969,1.194-2.661,2.444c-1.432,2.583-1.148,7.148,0.85,13.695
			c0.072,0.256,0.132,0.462,0.178,0.621c1.452,4.824,2.131,8.483,2.035,10.978c-0.096,2.492-0.813,4.948-2.154,7.366
			c-1.795,3.239-4.274,5.343-7.436,6.31c-3.163,0.968-6.281,0.599-9.355-1.105c-3.403-1.887-5.502-4.47-6.297-7.75
			C68.491,146.434,69.08,142.82,71.053,138.875z"/>
		<path d="M91.518,164.973l24.646-44.464l10.055,5.574c3.751,2.079,5.91,4.602,6.477,7.567c0.567,2.967-0.401,6.707-2.901,11.216
			c-2.329,4.202-4.981,7.054-7.956,8.554c-2.976,1.499-5.888,1.459-8.736-0.12l-4.705-2.606l-10.021,18.08L91.518,164.973z
			 M111.925,144.328l2.706,1.5c1.599,0.887,2.971,1.01,4.115,0.372c1.144-0.64,2.478-2.331,4-5.079
			c1.398-2.521,2.034-4.419,1.911-5.693c-0.125-1.273-1.038-2.384-2.739-3.327l-2.459-1.363L111.925,144.328z"/>
		<path d="M117.07,179.135l24.646-44.462l17.896,9.92l-3.562,6.427l-11.039-6.119l-6.459,11.653l7.955,4.41l-3.562,6.427
			l-7.955-4.41l-7.363,13.283l11.039,6.118l-3.699,6.673L117.07,179.135z"/>
		<path d="M145.747,180.119l12.63-22.784c1.943-3.505,4.419-5.724,7.428-6.655c3.008-0.932,6.193-0.466,9.557,1.397
			c3.177,1.762,5.128,4.176,5.853,7.244c0.726,3.067,0.109,6.364-1.845,9.891L177,173.486l-7.041-3.903l2.71-4.89
			c0.853-1.537,1.192-2.855,1.024-3.953c-0.168-1.1-0.836-1.973-2.004-2.619c-1.17-0.646-2.264-0.752-3.285-0.312
			c-1.02,0.439-1.956,1.428-2.809,2.965l-13.755,24.814c-0.853,1.537-1.196,2.86-1.034,3.969c0.162,1.109,0.828,1.986,1.997,2.635
			c1.168,0.646,2.265,0.746,3.292,0.298c1.025-0.449,1.964-1.443,2.817-2.98l3.356-6.058l7.043,3.902l-2.574,4.644
			c-2.158,3.896-4.741,6.39-7.746,7.483c-3.005,1.095-6.198,0.703-9.58-1.172c-3.465-1.92-5.504-4.416-6.118-7.49
			C142.68,187.744,143.497,184.177,145.747,180.119z"/>
		<path d="M183.568,166.273l3.562-6.426l21.095,11.691l-3.562,6.427l-7.135-3.954l-21.082,38.035l-6.857-3.801l21.084-38.036
			L183.568,166.273z"/>
		<path d="M204.869,183.105c1.941-3.506,4.418-5.725,7.427-6.655s6.193-0.466,9.556,1.397c3.178,1.762,5.129,4.176,5.854,7.243
			c0.725,3.068,0.109,6.365-1.846,9.892l-12.629,22.783c-2.158,3.896-4.741,6.391-7.746,7.483c-3.004,1.095-6.198,0.705-9.58-1.17
			c-3.424-1.897-5.45-4.394-6.079-7.489c-0.63-3.095,0.176-6.662,2.414-10.701L204.869,183.105z M205.404,215.277l13.755-24.813
			c0.853-1.537,1.194-2.854,1.024-3.953c-0.168-1.099-0.836-1.972-2.004-2.618c-1.169-0.647-2.265-0.752-3.283-0.312
			c-1.021,0.439-1.957,1.427-2.811,2.965l-13.755,24.812c-0.853,1.539-1.197,2.861-1.034,3.971s0.829,1.986,1.997,2.634
			s2.267,0.747,3.292,0.298C203.613,217.809,204.553,216.814,205.404,215.277z"/>
		<path d="M230.409,217.521l-10.362,18.694l-6.857-3.801l24.646-44.462l10.055,5.572c3.771,2.092,5.937,4.617,6.491,7.578
			c0.558,2.961-0.416,6.696-2.915,11.205c-1.546,2.789-3.134,4.855-4.765,6.203c-1.632,1.348-3.511,2.129-5.64,2.342l-6.41,23.457
			l-7.104-3.938l6.119-21.047L230.409,217.521z M241.13,198.18l-7.157,12.915l2.704,1.5c1.579,0.875,2.939,1.007,4.083,0.394
			c1.145-0.611,2.432-2.209,3.862-4.793c1.296-2.336,1.867-4.129,1.716-5.379c-0.15-1.25-1.066-2.34-2.748-3.271L241.13,198.18z"/>
	</g>
	<g>
		<g>
			<polyline fill="none" stroke="#ED1C24" stroke-width="4" stroke-miterlimit="10" points="243.523,257.908 240.615,263.156 
				235.367,260.248 			"/>
			
				<line fill="none" stroke="#ED1C24" stroke-width="4" stroke-miterlimit="10" stroke-dasharray="12.3809,12.3809" x1="224.539" y1="254.246" x2="13.381" y2="137.199"/>
			<polyline fill="none" stroke="#ED1C24" stroke-width="4" stroke-miterlimit="10" points="7.966,134.197 2.719,131.288 
				5.628,126.04 			"/>
			
				<line fill="none" stroke="#ED1C24" stroke-width="4" stroke-miterlimit="10" stroke-dasharray="12.2727,12.2727" x1="11.577" y1="115.307" x2="68.102" y2="13.333"/>
			<polyline fill="none" stroke="#ED1C24" stroke-width="4" stroke-miterlimit="10" points="71.077,7.967 73.986,2.719 
				79.233,5.628 			"/>
			
				<line fill="none" stroke="#ED1C24" stroke-width="4" stroke-miterlimit="10" stroke-dasharray="12.381,12.381" x1="90.062" y1="11.63" x2="301.221" y2="128.677"/>
			<polyline fill="none" stroke="#ED1C24" stroke-width="4" stroke-miterlimit="10" points="306.635,131.678 311.883,134.587 
				308.974,139.835 			"/>
			
				<line fill="none" stroke="#ED1C24" stroke-width="4" stroke-miterlimit="10" stroke-dasharray="12.2728,12.2728" x1="303.023" y1="150.568" x2="246.499" y2="252.542"/>
		</g>
	</g>
</g>
</svg>
