<?xml version="1.0" encoding="utf-8"?>
<!-- Generator: Adobe Illustrator 17.1.0, SVG Export Plug-In . SVG Version: 6.00 Build 0)  -->
<!DOCTYPE svg PUBLIC "-//W3C//DTD SVG 1.1//EN" "http://www.w3.org/Graphics/SVG/1.1/DTD/svg11.dtd">
<svg version="1.1" id="Layer_1" xmlns="http://www.w3.org/2000/svg" xmlns:xlink="http://www.w3.org/1999/xlink" x="0px" y="0px"
	 viewBox="0 0 362.2 58.6" enable-background="new 0 0 362.2 58.6" xml:space="preserve">
<g>
	<path fill="#D9D9D9" d="M3.7,41.4V2.5h7.9c3.2,0,5.6,0.9,7.4,2.6c1.7,1.8,2.6,4.3,2.6,7.5c0,1.9-0.3,3.6-1,5.1
		c-0.7,1.5-1.7,2.7-3.1,3.8c1.6,0.9,2.8,2.1,3.5,3.7c0.8,1.5,1.1,3.5,1.1,5.8c0,3.5-0.8,6.2-2.3,7.9c-1.6,1.7-4,2.5-7.3,2.5H3.7z
		 M9.6,18.7H12c1.1,0,1.9-0.5,2.6-1.4c0.6-0.9,0.9-2.2,0.9-3.9c0-1.8-0.3-3.2-0.9-4c-0.6-0.8-1.6-1.2-3-1.2H9.6V18.7z M9.6,35.7h2.6
		c1.3,0,2.2-0.4,2.8-1.3c0.6-0.9,0.9-2.3,0.9-4.2c0-2.1-0.3-3.6-1-4.5c-0.7-0.9-1.8-1.4-3.4-1.4H9.6V35.7z"/>
	<path fill="#D9D9D9" d="M26.5,2.5h6.1v30.1c0,1.1,0.3,2,0.9,2.7c0.6,0.7,1.3,1,2.3,1c0.9,0,1.7-0.3,2.2-1c0.5-0.7,0.8-1.6,0.8-2.7
		V2.5h6.1v29c0,3.4-0.8,6-2.4,7.9c-1.6,1.8-3.9,2.8-6.8,2.8c-3,0-5.3-0.9-6.9-2.8c-1.6-1.8-2.4-4.5-2.4-8V2.5z"/>
	<path fill="#D9D9D9" d="M50.2,7.9V2.5h5.4v5.3H50.2z M50.2,41.4V12.7h5.4v28.7H50.2z"/>
	<path fill="#D9D9D9" d="M61.3,41.4V2.5h5.9v33.2h9.3v5.6H61.3z"/>
	<path fill="#D9D9D9" d="M79.9,41.4V2.5h8.5c3.3,0,5.7,0.9,7.3,2.6c1.6,1.7,2.4,4.4,2.4,8.1v17.3c0,3.8-0.8,6.5-2.3,8.2
		s-3.9,2.6-7.2,2.6H79.9z M85.8,35.6h3c1.1,0,1.8-0.3,2.3-1c0.5-0.7,0.8-1.7,0.8-3.1V12.9c0-1.6-0.4-2.8-1.2-3.5
		c-0.8-0.7-2-1.1-3.6-1.1h-1.4V35.6z"/>
	<path fill="#D9D9D9" d="M103,7.9V2.5h5.4v5.3H103z M103,41.4V12.7h5.4v28.7H103z"/>
	<path fill="#D9D9D9" d="M114.1,41.4V2.5h5.4l7.6,23.2c0.1,0.4,0.3,1,0.5,1.8c0.2,0.7,0.4,1.5,0.6,2.4c-0.2-1.1-0.4-2.2-0.5-3.1
		c-0.1-1-0.2-1.7-0.2-2.1V2.5h5.6v38.8h-5.6l-7.3-21.5c0-0.1-0.1-0.2-0.1-0.4c-0.5-1.5-0.9-2.7-1.1-3.8c0.2,1.4,0.4,2.5,0.5,3.4
		c0.1,0.9,0.2,1.6,0.2,2v20.3H114.1z"/>
	<path fill="#D9D9D9" d="M138.6,31.4V11.5c0-3.1,0.8-5.5,2.5-7.2c1.7-1.7,4-2.6,6.9-2.6c2.8,0,5,0.8,6.4,2.5
		c1.5,1.7,2.2,4.2,2.2,7.4v3.6h-5.8v-4.1c0-1.3-0.3-2.3-0.8-3c-0.5-0.7-1.3-1-2.3-1s-1.8,0.3-2.3,1c-0.5,0.7-0.8,1.7-0.8,3v21.7
		c0,1.3,0.3,2.4,0.8,3c0.5,0.7,1.3,1,2.3,1s1.8-0.3,2.3-1c0.5-0.7,0.8-1.7,0.8-3v-6.1h-3.6v-4.9h9.4v19.6h-2.9l-1.2-2.7
		c-0.7,1.2-1.5,2.1-2.4,2.7c-0.9,0.6-2.1,0.9-3.4,0.9c-2.7,0-4.7-0.9-6.1-2.8C139.3,37.6,138.6,34.9,138.6,31.4z"/>
	<path fill="#D9D9D9" d="M172.8,7.9V2.5h5.4v5.3H172.8z M172.8,41.4V12.7h5.4v28.7H172.8z"/>
	<path fill="#D9D9D9" d="M183.9,41.4V2.5h5.4l7.6,23.2c0.1,0.4,0.3,1,0.5,1.8c0.2,0.7,0.4,1.5,0.6,2.4c-0.2-1.1-0.4-2.2-0.5-3.1
		c-0.1-1-0.2-1.7-0.2-2.1V2.5h5.6v38.8h-5.6L190,19.9c0-0.1-0.1-0.2-0.1-0.4c-0.5-1.5-0.9-2.7-1.1-3.8c0.2,1.4,0.4,2.5,0.5,3.4
		c0.1,0.9,0.2,1.6,0.2,2v20.3H183.9z"/>
	<path fill="#D9D9D9" d="M207.3,31.5l5.7-0.9c0.1,2,0.5,3.4,1.1,4.4c0.6,0.9,1.6,1.4,2.8,1.4c1.1,0,2-0.3,2.7-1c0.7-0.7,1-1.6,1-2.7
		c0-2-1.6-4.6-4.8-7.8c-0.3-0.3-0.4-0.4-0.6-0.6c-3.2-3.2-5.2-5.6-6.1-7.3c-0.9-1.7-1.3-3.5-1.3-5.4c0-2.7,0.9-5,2.7-6.9
		c1.8-1.9,4-2.8,6.6-2.8c2.5,0,4.6,0.9,6.2,2.6c1.6,1.7,2.5,4.1,2.8,7l-5.9,0.8c-0.1-1.7-0.4-3-0.9-3.7c-0.5-0.8-1.3-1.1-2.3-1.1
		c-1,0-1.7,0.3-2.3,1c-0.6,0.7-0.9,1.5-0.9,2.6c0,2.3,1.9,5.2,5.6,8.8c0.1,0.1,0.3,0.3,0.3,0.3c2.8,2.7,4.6,4.9,5.4,6.6
		c0.9,1.7,1.3,3.6,1.3,5.7c0,2.8-0.9,5.2-2.6,7c-1.8,1.8-4,2.7-6.7,2.7c-3,0-5.3-0.9-7.1-2.8C208.3,37.5,207.4,34.9,207.3,31.5z"/>
	<path fill="#D9D9D9" d="M230.6,41.4V2.5h8.8c3.3,0,5.7,0.9,7.1,2.7c1.5,1.8,2.2,4.6,2.2,8.6c0,3.7-0.7,6.6-2.1,8.7
		c-1.4,2.1-3.4,3.2-5.9,3.2h-4.1v15.8H230.6z M236.6,20h2.4c1.4,0,2.4-0.4,2.9-1.3c0.5-0.9,0.8-2.5,0.8-4.9c0-2.2-0.3-3.7-0.8-4.5
		s-1.6-1.2-3.1-1.2h-2.1V20z"/>
	<path fill="#D9D9D9" d="M252.9,41.4V2.5h15.6v5.6h-9.6v10.2h6.9v5.6h-6.9v11.6h9.6v5.8H252.9z"/>
	<path fill="#D9D9D9" d="M272.4,31.4V11.5c0-3.1,0.8-5.5,2.5-7.2c1.7-1.7,4-2.6,6.9-2.6c2.8,0,5,0.9,6.6,2.7
		c1.6,1.8,2.4,4.2,2.4,7.3v3.7h-6.1v-4.3c0-1.3-0.3-2.3-0.8-3c-0.5-0.7-1.3-1-2.3-1s-1.8,0.3-2.3,1c-0.5,0.7-0.8,1.7-0.8,3v21.7
		c0,1.3,0.3,2.4,0.8,3c0.5,0.7,1.3,1,2.3,1s1.8-0.3,2.3-1c0.5-0.7,0.8-1.7,0.8-3v-5.3h6.1v4.1c0,3.4-0.8,6-2.4,7.9
		c-1.6,1.8-3.9,2.8-6.8,2.8c-3,0-5.3-0.9-6.9-2.7C273.2,37.6,272.4,34.9,272.4,31.4z"/>
	<path fill="#D9D9D9" d="M292.6,8.1V2.5H311v5.6h-6.2v33.2h-6V8.1H292.6z"/>
	<path fill="#D9D9D9" d="M313,11.5c0-3.1,0.8-5.5,2.5-7.2c1.7-1.7,4-2.6,6.9-2.6c2.8,0,5,0.9,6.6,2.7c1.6,1.8,2.4,4.2,2.4,7.3v19.9
		c0,3.4-0.8,6-2.4,7.9c-1.6,1.8-3.9,2.8-6.8,2.8c-3,0-5.3-0.9-6.8-2.8c-1.6-1.8-2.3-4.5-2.3-8V11.5z M325.3,32.8V11.1
		c0-1.3-0.3-2.3-0.8-3c-0.5-0.7-1.3-1-2.3-1s-1.8,0.3-2.3,1c-0.5,0.7-0.8,1.7-0.8,3v21.7c0,1.3,0.3,2.4,0.8,3c0.5,0.7,1.3,1,2.3,1
		s1.8-0.3,2.3-1C325,35.1,325.3,34.1,325.3,32.8z"/>
	<path fill="#D9D9D9" d="M342.8,25v16.3h-6V2.5h8.8c3.3,0,5.7,0.9,7.1,2.7s2.2,4.6,2.2,8.6c0,2.4-0.3,4.4-0.9,5.9
		c-0.6,1.5-1.6,2.7-2.9,3.7l4.4,18h-6.2L345.7,25H342.8z M342.8,8.1v11.3h2.4c1.4,0,2.3-0.4,2.9-1.2c0.5-0.8,0.8-2.4,0.8-4.6
		c0-2-0.3-3.5-0.8-4.2c-0.6-0.8-1.6-1.2-3-1.2H342.8z"/>
</g>
<g>
	<path fill="#D9D9D9" d="M3.6,57V43.6h2.1v5.7c0.1-0.2,0.1-0.4,0.2-0.5c0-0.1,0.1-0.2,0.1-0.3L8,43.6h2.1l-2.3,4.6l2.6,8.8H8.2
		l-1.7-6.7l-0.8,1.5V57H3.6z"/>
	<path fill="#D9D9D9" d="M11.3,45.4v-1.8h1.9v1.8H11.3z M11.3,57v-9.9h1.9V57H11.3z"/>
	<path fill="#D9D9D9" d="M15.1,57V43.6h2v11.5h3.2V57H15.1z"/>
	<path fill="#D9D9D9" d="M21.5,57V43.6h2v11.5h3.2V57H21.5z"/>
	<path fill="#D9D9D9" d="M30.6,45.5v-1.9H37v1.9h-2.2V57h-2.1V45.5H30.6z"/>
	<path fill="#D9D9D9" d="M38.1,45.4v-1.8H40v1.8H38.1z M38.1,57v-9.9H40V57H38.1z"/>
	<path fill="#D9D9D9" d="M41.9,57V43.6h2.8L46,51c0.1,0.3,0.1,0.6,0.1,1c0,0.3,0,0.7,0,1.1c0-0.3,0-0.6,0.1-1c0-0.3,0.1-0.7,0.1-1
		l1.3-7.4h2.8V57h-1.9v-8.5c0-0.2,0-0.6,0-1c0-0.4,0.1-0.9,0.1-1.4c0,0.2-0.1,0.4-0.1,0.7c-0.1,0.6-0.2,1-0.2,1.2L46.7,57h-1
		L44,48.1c-0.1-0.4-0.1-0.8-0.2-1.2s-0.1-0.7-0.1-0.7c0,0.5,0.1,0.9,0.1,1.3c0,0.4,0,0.8,0,1.1V57H41.9z"/>
	<path fill="#D9D9D9" d="M52.6,57V43.6H58v1.9h-3.3V49H57V51h-2.4v4H58v2H52.6z"/>
	<path fill="#D9D9D9" d="M59.6,57v-2.1h2V57H59.6z"/>
	<path fill="#D9D9D9" d="M67.5,57V43.6h2.8l1.3,7.4c0.1,0.3,0.1,0.6,0.1,1c0,0.3,0,0.7,0,1.1c0-0.3,0-0.6,0.1-1c0-0.3,0.1-0.7,0.1-1
		l1.3-7.4h2.8V57h-1.9v-8.5c0-0.2,0-0.6,0-1s0.1-0.9,0.1-1.4c0,0.2-0.1,0.4-0.1,0.7c-0.1,0.6-0.2,1-0.2,1.2L72.3,57h-1l-1.6-8.9
		c-0.1-0.4-0.1-0.8-0.2-1.2c-0.1-0.4-0.1-0.7-0.1-0.7c0,0.5,0.1,0.9,0.1,1.3c0,0.4,0,0.8,0,1.1V57H67.5z"/>
	<path fill="#D9D9D9" d="M77.2,57l2.2-13.4h2.7L84.3,57h-2.1l-0.4-2.9h-2.1L79.2,57H77.2z M80,52.2h1.6l-0.7-5.6h-0.1L80,52.2z"/>
	<path fill="#D9D9D9" d="M85.5,57V43.6h2.1v5.7c0.1-0.2,0.1-0.4,0.2-0.5c0-0.1,0.1-0.2,0.1-0.3l2.1-4.8h2l-2.3,4.6l2.6,8.8h-2.2
		l-1.7-6.7l-0.8,1.5V57H85.5z"/>
	<path fill="#D9D9D9" d="M93.3,57V43.6h5.4v1.9h-3.3V49h2.4V51h-2.4v4h3.3v2H93.3z"/>
	<path fill="#D9D9D9" d="M104.2,43.6h2.1v5.5h2.1v-5.5h2.1V57h-2.1v-6h-2.1v6h-2.1V43.6z"/>
	<path fill="#D9D9D9" d="M112.3,45.4v-1.8h1.9v1.8H112.3z M112.3,57v-9.9h1.9V57H112.3z"/>
	<path fill="#D9D9D9" d="M115.5,53.6l2-0.3c0,0.7,0.2,1.2,0.4,1.5c0.2,0.3,0.5,0.5,1,0.5c0.4,0,0.7-0.1,0.9-0.4
		c0.2-0.2,0.4-0.6,0.4-0.9c0-0.7-0.6-1.6-1.7-2.7c-0.1-0.1-0.2-0.2-0.2-0.2c-1.1-1.1-1.8-1.9-2.1-2.5c-0.3-0.6-0.5-1.2-0.5-1.9
		c0-0.9,0.3-1.7,0.9-2.4c0.6-0.6,1.4-1,2.3-1c0.9,0,1.6,0.3,2.1,0.9c0.6,0.6,0.9,1.4,1,2.4l-2,0.3c0-0.6-0.1-1-0.3-1.3
		s-0.4-0.4-0.8-0.4c-0.3,0-0.6,0.1-0.8,0.3c-0.2,0.2-0.3,0.5-0.3,0.9c0,0.8,0.6,1.8,1.9,3.1c0,0,0.1,0.1,0.1,0.1
		c1,0.9,1.6,1.7,1.9,2.3c0.3,0.6,0.4,1.2,0.4,2c0,1-0.3,1.8-0.9,2.4c-0.6,0.6-1.4,0.9-2.3,0.9c-1,0-1.8-0.3-2.4-1
		C115.9,55.7,115.5,54.8,115.5,53.6z"/>
	<path fill="#D9D9D9" d="M122.4,45.5v-1.9h6.4v1.9h-2.2V57h-2.1V45.5H122.4z"/>
	<path fill="#D9D9D9" d="M129.5,46.7c0-1.1,0.3-1.9,0.9-2.5c0.6-0.6,1.4-0.9,2.4-0.9c1,0,1.7,0.3,2.3,0.9c0.6,0.6,0.8,1.5,0.8,2.5
		v6.9c0,1.2-0.3,2.1-0.8,2.7c-0.6,0.6-1.3,1-2.4,1c-1,0-1.8-0.3-2.4-1c-0.5-0.6-0.8-1.6-0.8-2.8V46.7z M133.7,54v-7.5
		c0-0.5-0.1-0.8-0.3-1c-0.2-0.2-0.4-0.3-0.8-0.3s-0.6,0.1-0.8,0.3c-0.2,0.2-0.3,0.6-0.3,1V54c0,0.5,0.1,0.8,0.3,1
		c0.2,0.2,0.4,0.4,0.8,0.4s0.6-0.1,0.8-0.4C133.6,54.9,133.7,54.5,133.7,54z"/>
	<path fill="#D9D9D9" d="M139.8,51.4V57h-2.1V43.6h3c1.1,0,2,0.3,2.5,0.9s0.8,1.6,0.8,3c0,0.8-0.1,1.5-0.3,2c-0.2,0.5-0.5,0.9-1,1.3
		l1.5,6.2H142l-1.3-5.6H139.8z M139.8,45.5v3.9h0.8c0.5,0,0.8-0.1,1-0.4c0.2-0.3,0.3-0.8,0.3-1.6c0-0.7-0.1-1.2-0.3-1.5
		c-0.2-0.3-0.5-0.4-1.1-0.4H139.8z"/>
	<path fill="#D9D9D9" d="M144.3,43.6h2.1l1.3,5.4h0.1l1.3-5.4h2.1l-2.4,7.8V57h-2.1v-5.3L144.3,43.6z"/>
	<path fill="#D9D9D9" d="M150.9,57v-2.1h2V57H150.9z"/>
</g>
</svg>
