<?xml version="1.0" encoding="utf-8"?>
<!-- Generator: Adobe Illustrator 15.1.0, SVG Export Plug-In . SVG Version: 6.00 Build 0)  -->
<!DOCTYPE svg PUBLIC "-//W3C//DTD SVG 1.1//EN" "http://www.w3.org/Graphics/SVG/1.1/DTD/svg11.dtd">
<svg version="1.1" id="Layer_1" xmlns="http://www.w3.org/2000/svg" xmlns:xlink="http://www.w3.org/1999/xlink" x="0px" y="0px"
	 width="340.41px" height="299.273px" viewBox="0 0 340.41 299.273" enable-background="new 0 0 340.41 299.273"
	 xml:space="preserve">
<rect x="26.184" y="58.381" transform="matrix(0.8746 0.4848 -0.4848 0.8746 93.8854 -63.7558)" fill="#E8E4E2" width="288.042" height="182.511"/>
<g>
	<path d="M25.438,165.942l7.188-12.969l2,1.109l-3.032,5.471c0.179-0.183,0.328-0.328,0.447-0.438
		c0.12-0.11,0.219-0.193,0.298-0.252l4.547-3.529l1.982,1.1l-4.68,3.197l-2.249,9.914l-2.081-1.152l1.928-7.455l-1.551,1.063
		l-2.799,5.049L25.438,165.942z"/>
	<path d="M32.801,170.023l5.304-9.568l1.803,0.999l-5.304,9.568L32.801,170.023z M39,158.839l0.989-1.784l1.803,0.999l-0.989,1.784
		L39,158.839z"/>
	<path d="M36.497,172.071l7.188-12.968l1.982,1.099l-6.149,11.094l3.103,1.72l-1.039,1.875L36.497,172.071z"/>
	<path d="M42.703,175.511l7.188-12.968l1.982,1.099l-6.149,11.094l3.103,1.72l-1.039,1.875L42.703,175.511z"/>
	<path d="M57.65,169.294l1.039-1.874l6.152,3.41l-1.039,1.874l-2.081-1.153l-6.149,11.094l-2-1.108l6.149-11.094L57.65,169.294z"/>
	<path d="M58.747,184.405l5.304-9.568l1.803,0.999l-5.304,9.568L58.747,184.405z M64.945,173.221l0.989-1.785l1.803,1l-0.989,1.784
		L64.945,173.221z"/>
	<path d="M62.441,186.454l7.188-12.969l2.663,1.477l-2.681,7.904c-0.105,0.316-0.235,0.647-0.392,0.99
		c-0.155,0.345-0.331,0.693-0.526,1.045c0.166-0.299,0.353-0.598,0.562-0.896c0.208-0.299,0.441-0.607,0.696-0.927l5.238-6.511
		l2.699,1.496l-7.188,12.969l-1.874-1.039l4.539-8.188c0.129-0.233,0.316-0.539,0.562-0.919c0.245-0.38,0.526-0.799,0.843-1.256
		c-0.126,0.156-0.297,0.374-0.514,0.652c-0.417,0.527-0.69,0.864-0.819,1.012l-6.404,7.705l-0.995-0.552l3.217-9.483
		c0.132-0.381,0.278-0.795,0.438-1.246c0.16-0.451,0.248-0.703,0.262-0.758c-0.203,0.466-0.4,0.897-0.59,1.297
		c-0.19,0.398-0.366,0.744-0.529,1.037l-4.539,8.188L62.441,186.454z"/>
	<path d="M72.746,192.165l7.188-12.968l5.22,2.894l-1.039,1.874l-3.22-1.784l-1.884,3.398l2.32,1.286l-1.039,1.874l-2.32-1.285
		l-2.148,3.873l3.22,1.785l-1.079,1.946L72.746,192.165z"/>
	<path d="M79.508,195.913l1.128-2.035l1.91,1.059l-1.128,2.036L79.508,195.913z"/>
	<path d="M87.185,200.168l7.188-12.969l2.664,1.477l-2.682,7.904c-0.105,0.317-0.235,0.648-0.391,0.991
		c-0.155,0.345-0.331,0.692-0.526,1.045c0.166-0.299,0.353-0.598,0.561-0.896c0.209-0.299,0.441-0.607,0.696-0.927l5.238-6.511
		l2.699,1.496l-7.188,12.968l-1.875-1.039l4.539-8.188c0.129-0.233,0.316-0.539,0.562-0.919c0.246-0.38,0.527-0.799,0.843-1.257
		c-0.126,0.157-0.298,0.375-0.515,0.653c-0.417,0.526-0.69,0.864-0.818,1.012l-6.405,7.704l-0.996-0.551l3.217-9.484
		c0.133-0.38,0.278-0.795,0.438-1.246c0.16-0.45,0.247-0.702,0.262-0.757c-0.204,0.466-0.4,0.897-0.59,1.297
		c-0.189,0.398-0.366,0.744-0.528,1.037l-4.539,8.188L87.185,200.168z"/>
	<path d="M96.566,205.369l9.323-11.785l2.609,1.446l-5.062,14.146l-2.054-1.139l1.152-3.03l-2.018-1.118l-1.987,2.568
		L96.566,205.369z M101.786,202.19l1.525,0.845l2.321-5.795l-0.125-0.069L101.786,202.19z"/>
	<path d="M104.583,209.813l7.188-12.969l2,1.108l-3.032,5.471c0.179-0.182,0.328-0.328,0.448-0.437
		c0.119-0.11,0.218-0.194,0.297-0.252l4.547-3.529l1.982,1.099l-4.68,3.198l-2.249,9.914l-2.081-1.153l1.928-7.454l-1.55,1.062
		l-2.799,5.05L104.583,209.813z"/>
	<path d="M112.117,213.989l7.188-12.969l5.22,2.894l-1.039,1.874l-3.22-1.784l-1.884,3.399l2.32,1.285l-1.039,1.875l-2.32-1.286
		l-2.147,3.874l3.22,1.784l-1.079,1.946L112.117,213.989z"/>
	<path d="M129.798,206.836l1.982,1.099l-2.933,5.292l2,1.108l2.933-5.292l2,1.109l-7.188,12.968l-2-1.108l3.216-5.803l-2-1.108
		l-3.216,5.802l-1.982-1.098L129.798,206.836z"/>
	<path d="M130.484,224.169l5.304-9.569l1.803,1l-5.304,9.568L130.484,224.169z M136.683,212.986l0.989-1.784l1.803,0.999
		l-0.989,1.784L136.683,212.986z"/>
	<path d="M135.394,222.588l2.069,0.771c-0.329,0.678-0.472,1.232-0.431,1.667c0.042,0.433,0.271,0.766,0.69,0.997
		c0.365,0.202,0.724,0.251,1.079,0.147c0.355-0.104,0.637-0.345,0.845-0.722c0.375-0.676,0.32-1.847-0.162-3.514
		c-0.037-0.13-0.065-0.228-0.084-0.293c-0.469-1.636-0.696-2.818-0.682-3.549c0.015-0.73,0.197-1.414,0.549-2.047
		c0.507-0.915,1.234-1.518,2.181-1.811c0.948-0.291,1.854-0.196,2.722,0.284c0.843,0.468,1.374,1.139,1.592,2.014
		s0.092,1.827-0.376,2.857l-2.109-0.806c0.286-0.6,0.412-1.072,0.382-1.418c-0.032-0.346-0.224-0.617-0.576-0.812
		c-0.322-0.179-0.642-0.213-0.957-0.103s-0.574,0.349-0.776,0.713c-0.417,0.753-0.335,2.085,0.248,3.995
		c0.021,0.074,0.039,0.134,0.052,0.181c0.424,1.407,0.621,2.475,0.594,3.202c-0.028,0.727-0.237,1.443-0.628,2.148
		c-0.524,0.944-1.247,1.559-2.169,1.84c-0.922,0.282-1.832,0.175-2.729-0.322c-0.993-0.551-1.605-1.304-1.836-2.262
		C134.646,224.792,134.818,223.739,135.394,222.588z"/>
	<path d="M146.391,218.485l1.039-1.875l6.152,3.41l-1.039,1.875l-2.081-1.154l-6.149,11.094l-2-1.107l6.149-11.094L146.391,218.485z
		"/>
	<path d="M152.603,223.393c0.567-1.021,1.29-1.669,2.166-1.94c0.879-0.271,1.808-0.136,2.788,0.407
		c0.927,0.514,1.495,1.219,1.707,2.113c0.211,0.895,0.032,1.855-0.538,2.885l-3.684,6.645c-0.63,1.137-1.383,1.864-2.26,2.184
		c-0.876,0.319-1.808,0.205-2.794-0.342c-0.998-0.553-1.59-1.281-1.772-2.185c-0.185-0.902,0.051-1.942,0.704-3.12L152.603,223.393z
		 M152.759,232.777l4.012-7.237c0.249-0.448,0.349-0.833,0.3-1.152c-0.049-0.321-0.244-0.575-0.584-0.764
		c-0.341-0.189-0.66-0.221-0.958-0.092c-0.297,0.128-0.57,0.417-0.819,0.865l-4.012,7.237c-0.249,0.448-0.35,0.834-0.302,1.157
		s0.242,0.579,0.583,0.768c0.341,0.189,0.661,0.219,0.96,0.088C152.237,233.515,152.511,233.225,152.759,232.777z"/>
	<path d="M160.052,233.432l-3.022,5.452l-2-1.108l7.188-12.969l2.934,1.626c1.1,0.609,1.73,1.347,1.893,2.21
		c0.162,0.864-0.122,1.953-0.851,3.269c-0.451,0.813-0.915,1.416-1.389,1.81c-0.477,0.393-1.024,0.62-1.645,0.683l-1.87,6.842
		l-2.072-1.148l1.785-6.139L160.052,233.432z M163.179,227.791l-2.088,3.767l0.79,0.438c0.46,0.255,0.857,0.294,1.191,0.115
		c0.333-0.179,0.708-0.645,1.125-1.398c0.378-0.682,0.545-1.204,0.501-1.568c-0.045-0.365-0.312-0.684-0.802-0.955L163.179,227.791z
		"/>
	<path d="M168.64,228.367l2.026,1.123l-1.573,5.905l0.126,0.07l4.111-4.498l2.035,1.128l-6.537,6.295l-2.983,5.381l-2-1.108
		l2.849-5.139L168.64,228.367z"/>
	<path d="M167.756,244.83l1.128-2.035l1.91,1.059l-1.128,2.035L167.756,244.83z"/>
</g>
<g>
	<g>
		<path d="M71.927,84.665l29.096-52.49l10.709,5.937c4.307,2.388,6.974,5.424,8,9.108c1.025,3.686,0.332,7.705-2.083,12.062
			c-1.448,2.614-3.18,4.651-5.192,6.114c-2.014,1.463-4.371,2.378-7.074,2.746c1.47,2.428,2.146,4.961,2.027,7.601
			c-0.119,2.639-1.05,5.532-2.793,8.679c-2.656,4.791-5.671,7.746-9.045,8.867c-3.372,1.119-7.273,0.451-11.701-2.003L71.927,84.665
			z M84.155,81.525l3.484,1.932c1.742,0.966,3.354,1.068,4.836,0.308c1.48-0.761,2.939-2.436,4.375-5.025
			c1.582-2.855,2.258-5.146,2.029-6.871c-0.231-1.725-1.41-3.178-3.54-4.357l-2.613-1.449L84.155,81.525z M96.932,58.474
			l3.267,1.811c1.477,0.818,2.975,0.827,4.495,0.024s2.911-2.341,4.173-4.616c1.381-2.492,1.963-4.526,1.744-6.103
			c-0.217-1.575-1.27-2.888-3.157-3.934l-2.613-1.449L96.932,58.474z"/>
		<path d="M131.914,49.298l8.276,4.587l-22.536,40.656c-0.845,1.525-1.127,2.959-0.843,4.303c0.283,1.343,1.066,2.37,2.35,3.081
			c1.282,0.711,2.535,0.82,3.758,0.327c1.222-0.492,2.262-1.514,3.121-3.062l22.535-40.656l8.24,4.567l-21.751,39.24
			c-2.562,4.623-5.603,7.58-9.118,8.874c-3.518,1.293-7.271,0.833-11.265-1.381c-4.042-2.24-6.442-5.199-7.202-8.879
			s0.175-7.892,2.804-12.635L131.914,49.298z"/>
		<path d="M134.871,119.555l21.47-38.732l7.297,4.045l-21.471,38.731L134.871,119.555z M159.963,74.29l4.004-7.225l7.296,4.045
			l-4.004,7.224L159.963,74.29z"/>
		<path d="M149.827,127.845l29.096-52.489l8.021,4.446l-24.89,44.903l12.56,6.962l-4.205,7.587L149.827,127.845z"/>
		<path d="M174.946,141.769l29.096-52.489l11.508,6.378c4.452,2.468,7.1,5.47,7.939,9.004c0.841,3.535-0.102,7.759-2.824,12.671
			l-12.998,23.45c-2.831,5.106-5.906,8.257-9.227,9.454c-3.32,1.195-7.195,0.566-11.624-1.888L174.946,141.769z M187.255,138.484
			l4.102,2.274c1.428,0.791,2.735,0.931,3.921,0.417c1.187-0.513,2.302-1.714,3.349-3.601l14.004-25.266
			c1.194-2.153,1.549-4.021,1.065-5.602s-1.839-2.989-4.065-4.223l-1.852-1.026L187.255,138.484z"/>
		<path d="M206.237,159.114l21.471-38.731l7.295,4.044l-21.469,38.732L206.237,159.114z M231.329,113.848l4.004-7.224l7.297,4.044
			l-4.005,7.224L231.329,113.848z"/>
		<path d="M221.193,167.405l29.096-52.49l7.26,4.024l-7.112,37.058c-0.143,0.712-0.349,1.642-0.619,2.787
			c-0.273,1.146-0.579,2.369-0.919,3.668c0.579-1.673,1.142-3.203,1.691-4.591c0.548-1.389,0.99-2.386,1.325-2.991l16.561-29.875
			l7.586,4.205l-29.096,52.49l-7.586-4.205l6.203-34.477c0.018-0.148,0.059-0.363,0.121-0.646c0.421-2.359,0.865-4.36,1.331-5.999
			c-0.729,2-1.354,3.654-1.873,4.964c-0.521,1.31-0.935,2.242-1.243,2.799l-15.212,27.442L221.193,167.405z"/>
		<path d="M261.728,172.267l14.91-26.898c2.293-4.138,5.217-6.757,8.768-7.857c3.553-1.099,7.312-0.55,11.281,1.65
			c3.823,2.119,6.097,4.867,6.82,8.241c0.724,3.375-0.142,7.277-2.597,11.705l-2.676,4.828l-7.805-4.326l3.078-5.554
			c1.006-1.815,1.41-3.371,1.212-4.667c-0.199-1.297-0.988-2.327-2.368-3.092c-1.379-0.765-2.671-0.889-3.876-0.369
			c-1.205,0.518-2.31,1.686-3.315,3.5l-16.238,29.295c-1.006,1.814-1.414,3.377-1.222,4.686c0.191,1.309,0.978,2.345,2.357,3.109
			c1.379,0.765,2.674,0.882,3.887,0.352c1.211-0.531,2.319-1.704,3.326-3.52l4.547-8.203l-4.9-2.717l3.702-6.68l12.705,7.043
			l-14.669,26.463l-3.884-2.153l0.452-4.495c-1.795,1.125-3.536,1.727-5.224,1.803c-1.688,0.077-3.427-0.381-5.217-1.373
			c-3.607-1.999-5.675-4.774-6.204-8.326C258.049,181.159,259.099,177.011,261.728,172.267z"/>
		<path d="M42.392,135.065l18.186-32.809l6.18,3.426l-18.186,32.809L42.392,135.065z M63.646,96.721l3.392-6.118l6.18,3.426
			l-3.392,6.118L63.646,96.721z"/>
		<path d="M55.06,142.086l24.646-44.461l6.149,3.408l-6.024,31.391c-0.12,0.604-0.294,1.391-0.525,2.361
			c-0.23,0.972-0.489,2.007-0.776,3.106c0.489-1.417,0.967-2.713,1.432-3.889s0.839-2.021,1.123-2.534l14.027-25.305l6.426,3.562
			l-24.646,44.462l-6.427-3.562l5.255-29.203c0.016-0.126,0.05-0.308,0.102-0.547c0.358-1.998,0.734-3.693,1.13-5.082
			c-0.618,1.694-1.147,3.096-1.588,4.205s-0.791,1.899-1.053,2.371l-12.885,23.245L55.06,142.086z"/>
		<path d="M88.065,145.63l7.095,2.646c-1.127,2.323-1.62,4.228-1.478,5.713c0.141,1.485,0.93,2.626,2.364,3.421
			c1.25,0.692,2.483,0.86,3.7,0.504c1.216-0.357,2.183-1.182,2.898-2.474c1.284-2.316,1.098-6.331-0.558-12.047
			c-0.129-0.446-0.225-0.78-0.288-1.003c-1.608-5.608-2.388-9.664-2.339-12.17s0.676-4.844,1.88-7.017
			c1.738-3.137,4.231-5.205,7.479-6.205c3.247-1,6.357-0.677,9.33,0.972c2.89,1.602,4.709,3.902,5.458,6.903
			c0.748,3.002,0.318,6.267-1.29,9.797l-7.231-2.763c0.979-2.056,1.415-3.678,1.308-4.861c-0.106-1.186-0.765-2.113-1.975-2.783
			c-1.106-0.613-2.201-0.731-3.281-0.353c-1.081,0.38-1.969,1.194-2.661,2.444c-1.432,2.583-1.148,7.148,0.85,13.695
			c0.072,0.256,0.132,0.462,0.178,0.621c1.452,4.824,2.131,8.484,2.035,10.977c-0.096,2.493-0.813,4.949-2.154,7.367
			c-1.795,3.239-4.274,5.343-7.436,6.31c-3.163,0.967-6.281,0.598-9.355-1.106c-3.403-1.887-5.502-4.47-6.297-7.75
			C85.504,153.188,86.093,149.576,88.065,145.63z"/>
		<path d="M108.53,171.727l24.646-44.463l10.055,5.574c3.751,2.079,5.91,4.602,6.477,7.568s-0.401,6.706-2.901,11.215
			c-2.329,4.203-4.981,7.054-7.956,8.554c-2.976,1.499-5.888,1.459-8.736-0.12l-4.705-2.607l-10.021,18.08L108.53,171.727z
			 M128.938,151.083l2.706,1.5c1.599,0.887,2.971,1.01,4.115,0.372c1.144-0.639,2.478-2.331,4-5.079
			c1.398-2.521,2.034-4.419,1.911-5.693c-0.125-1.274-1.038-2.384-2.739-3.327l-2.459-1.363L128.938,151.083z"/>
		<path d="M134.083,185.89l24.646-44.462l17.896,9.92l-3.562,6.426l-11.039-6.118l-6.459,11.653l7.955,4.41l-3.562,6.426
			l-7.955-4.409l-7.363,13.283l11.039,6.118l-3.699,6.673L134.083,185.89z"/>
		<path d="M162.76,186.874l12.63-22.784c1.943-3.505,4.419-5.724,7.428-6.655c3.008-0.932,6.193-0.466,9.556,1.397
			c3.177,1.762,5.128,4.176,5.853,7.244s0.109,6.365-1.845,9.891l-2.369,4.274l-7.041-3.903l2.71-4.89
			c0.852-1.537,1.193-2.855,1.025-3.953c-0.168-1.099-0.837-1.972-2.005-2.619c-1.169-0.647-2.263-0.752-3.284-0.312
			c-1.02,0.439-1.957,1.428-2.809,2.965l-13.755,24.814c-0.853,1.537-1.196,2.86-1.034,3.969s0.828,1.986,1.997,2.634
			c1.168,0.647,2.265,0.747,3.292,0.298c1.025-0.449,1.965-1.443,2.817-2.98l3.357-6.058l7.042,3.903l-2.574,4.643
			c-2.158,3.895-4.741,6.39-7.746,7.483c-3.005,1.095-6.198,0.704-9.58-1.171c-3.465-1.92-5.504-4.417-6.118-7.49
			C159.692,194.499,160.51,190.932,162.76,186.874z"/>
		<path d="M200.581,173.029l3.562-6.427l21.094,11.692l-3.562,6.427l-7.134-3.954l-21.083,38.035l-6.857-3.801l21.084-38.036
			L200.581,173.029z"/>
		<path d="M221.882,189.86c1.942-3.505,4.418-5.724,7.427-6.655c3.009-0.931,6.193-0.466,9.556,1.397
			c3.177,1.762,5.129,4.176,5.853,7.244c0.725,3.068,0.109,6.365-1.845,9.891l-12.629,22.784c-2.159,3.896-4.742,6.39-7.746,7.483
			c-3.005,1.095-6.199,0.705-9.581-1.17c-3.423-1.898-5.45-4.394-6.079-7.489s0.176-6.662,2.414-10.701L221.882,189.86z
			 M222.417,222.033l13.755-24.814c0.853-1.537,1.194-2.854,1.025-3.953c-0.168-1.099-0.837-1.972-2.005-2.619
			s-2.264-0.752-3.283-0.312c-1.021,0.439-1.957,1.427-2.81,2.965l-13.755,24.813c-0.852,1.538-1.197,2.861-1.034,3.97
			s0.829,1.986,1.997,2.634c1.168,0.648,2.266,0.747,3.292,0.298C220.626,224.563,221.565,223.57,222.417,222.033z"/>
		<path d="M247.422,224.276l-10.362,18.695l-6.857-3.801l24.646-44.462l10.055,5.573c3.771,2.091,5.936,4.616,6.491,7.577
			c0.557,2.962-0.416,6.697-2.915,11.206c-1.546,2.789-3.134,4.855-4.765,6.203c-1.631,1.347-3.511,2.128-5.639,2.341l-6.411,23.458
			l-7.103-3.938l6.119-21.047L247.422,224.276z M258.143,204.935l-7.158,12.915l2.705,1.5c1.579,0.875,2.939,1.006,4.083,0.393
			c1.144-0.611,2.431-2.209,3.862-4.792c1.296-2.337,1.867-4.13,1.716-5.38s-1.067-2.34-2.748-3.271L258.143,204.935z"/>
	</g>
	<g>
		<g>
			<polyline fill="none" stroke="#ED1C24" stroke-width="4" stroke-miterlimit="10" points="260.537,264.663 257.628,269.911 
				252.38,267.002 			"/>
			
				<line fill="none" stroke="#ED1C24" stroke-width="4" stroke-miterlimit="10" stroke-dasharray="12.3809,12.3809" x1="241.552" y1="261" x2="30.394" y2="143.953"/>
			<polyline fill="none" stroke="#ED1C24" stroke-width="4" stroke-miterlimit="10" points="24.979,140.952 19.731,138.043 
				22.641,132.795 			"/>
			
				<line fill="none" stroke="#ED1C24" stroke-width="4" stroke-miterlimit="10" stroke-dasharray="12.2727,12.2727" x1="28.59" y1="122.062" x2="85.114" y2="20.088"/>
			<polyline fill="none" stroke="#ED1C24" stroke-width="4" stroke-miterlimit="10" points="88.09,14.722 90.999,9.474 
				96.246,12.383 			"/>
			
				<line fill="none" stroke="#ED1C24" stroke-width="4" stroke-miterlimit="10" stroke-dasharray="12.381,12.381" x1="107.075" y1="18.385" x2="318.233" y2="135.432"/>
			<polyline fill="none" stroke="#ED1C24" stroke-width="4" stroke-miterlimit="10" points="323.647,138.433 328.896,141.342 
				325.986,146.59 			"/>
			
				<line fill="none" stroke="#ED1C24" stroke-width="4" stroke-miterlimit="10" stroke-dasharray="12.2728,12.2728" x1="320.036" y1="157.323" x2="263.512" y2="259.297"/>
		</g>
	</g>
</g>
<g>
	<g>
		<polyline fill="none" stroke="#ED1C24" stroke-width="4" stroke-miterlimit="10" points="260.537,264.663 257.628,269.911 
			252.38,267.002 		"/>
		
			<line fill="none" stroke="#ED1C24" stroke-width="4" stroke-miterlimit="10" stroke-dasharray="12.3809,12.3809" x1="241.552" y1="261" x2="30.394" y2="143.953"/>
		<polyline fill="none" stroke="#ED1C24" stroke-width="4" stroke-miterlimit="10" points="24.979,140.952 19.731,138.043 
			22.641,132.795 		"/>
		
			<line fill="none" stroke="#ED1C24" stroke-width="4" stroke-miterlimit="10" stroke-dasharray="12.2727,12.2727" x1="28.59" y1="122.062" x2="85.114" y2="20.088"/>
		<polyline fill="none" stroke="#ED1C24" stroke-width="4" stroke-miterlimit="10" points="88.09,14.722 90.999,9.474 
			96.246,12.383 		"/>
		
			<line fill="none" stroke="#ED1C24" stroke-width="4" stroke-miterlimit="10" stroke-dasharray="12.381,12.381" x1="107.075" y1="18.385" x2="318.233" y2="135.432"/>
		<polyline fill="none" stroke="#ED1C24" stroke-width="4" stroke-miterlimit="10" points="323.647,138.433 328.896,141.342 
			325.986,146.59 		"/>
		
			<line fill="none" stroke="#ED1C24" stroke-width="4" stroke-miterlimit="10" stroke-dasharray="12.2728,12.2728" x1="320.036" y1="157.323" x2="263.512" y2="259.297"/>
	</g>
</g>
</svg>
