<?xml version="1.0" encoding="utf-8"?>
<!-- Generator: Adobe Illustrator 15.1.0, SVG Export Plug-In . SVG Version: 6.00 Build 0)  -->
<!DOCTYPE svg PUBLIC "-//W3C//DTD SVG 1.1//EN" "http://www.w3.org/Graphics/SVG/1.1/DTD/svg11.dtd">
<svg version="1.1" id="Layer_1" xmlns="http://www.w3.org/2000/svg" xmlns:xlink="http://www.w3.org/1999/xlink" x="0px" y="0px"
	 width="356.545px" height="308.217px" viewBox="0 0 356.545 308.217" enable-background="new 0 0 356.545 308.217"
	 xml:space="preserve">
<rect x="25.028" y="62.853" transform="matrix(0.8746 0.4848 -0.4848 0.8746 97.0655 -67.1064)" fill="#E7E3E1" width="306.491" height="182.511"/>
<g>
	<path fill="#231F20" d="M41.573,174.885l7.188-12.969l2,1.109l-3.032,5.471c0.179-0.182,0.328-0.328,0.447-0.438
		c0.12-0.109,0.219-0.193,0.298-0.252l4.547-3.529l1.982,1.1l-4.68,3.197l-2.249,9.914l-2.081-1.152l1.928-7.455l-1.551,1.064
		l-2.799,5.049L41.573,174.885z"/>
	<path fill="#231F20" d="M48.936,178.967l5.304-9.568l1.803,0.998l-5.304,9.568L48.936,178.967z M55.135,167.784l0.989-1.785
		l1.803,1l-0.989,1.783L55.135,167.784z"/>
	<path fill="#231F20" d="M52.631,181.014l7.188-12.967l1.982,1.098l-6.149,11.094l3.103,1.721l-1.039,1.875L52.631,181.014z"/>
	<path fill="#231F20" d="M58.837,184.456l7.188-12.969l1.982,1.1l-6.149,11.094l3.103,1.719l-1.039,1.875L58.837,184.456z"/>
	<path fill="#231F20" d="M73.785,178.239l1.039-1.875l6.152,3.41l-1.039,1.875l-2.081-1.154l-6.149,11.094l-2-1.107l6.149-11.094
		L73.785,178.239z"/>
	<path fill="#231F20" d="M74.881,193.348l5.304-9.568l1.803,1l-5.304,9.568L74.881,193.348z M81.08,182.165l0.989-1.785l1.803,1
		l-0.989,1.785L81.08,182.165z"/>
	<path fill="#231F20" d="M78.576,195.397l7.188-12.969l2.663,1.477l-2.681,7.904c-0.105,0.316-0.235,0.648-0.392,0.99
		c-0.155,0.346-0.331,0.693-0.526,1.045c0.166-0.299,0.353-0.598,0.562-0.896c0.208-0.299,0.441-0.607,0.696-0.926l5.238-6.512
		l2.699,1.496l-7.188,12.969l-1.874-1.039l4.539-8.188c0.129-0.234,0.316-0.539,0.562-0.92c0.245-0.379,0.526-0.799,0.843-1.256
		c-0.126,0.156-0.297,0.375-0.514,0.652c-0.417,0.527-0.69,0.865-0.819,1.012l-6.404,7.705l-0.995-0.551l3.217-9.484
		c0.132-0.381,0.278-0.795,0.438-1.246c0.16-0.451,0.248-0.703,0.262-0.758c-0.203,0.467-0.4,0.898-0.59,1.297
		s-0.366,0.744-0.529,1.037l-4.539,8.189L78.576,195.397z"/>
	<path fill="#231F20" d="M88.881,201.108l7.188-12.967l5.22,2.893l-1.039,1.875l-3.22-1.785l-1.884,3.398l2.32,1.287l-1.039,1.873
		l-2.32-1.285l-2.148,3.873l3.22,1.785l-1.079,1.947L88.881,201.108z"/>
	<path fill="#231F20" d="M95.643,204.856l1.128-2.035l1.91,1.059l-1.128,2.037L95.643,204.856z"/>
	<path fill="#231F20" d="M103.32,209.112l7.188-12.969l2.664,1.477l-2.682,7.904c-0.105,0.318-0.235,0.648-0.391,0.992
		c-0.155,0.344-0.331,0.691-0.526,1.045c0.166-0.299,0.353-0.598,0.561-0.896c0.209-0.299,0.441-0.607,0.696-0.928l5.238-6.51
		l2.699,1.496l-7.188,12.967l-1.875-1.039l4.539-8.188c0.129-0.232,0.316-0.539,0.562-0.918c0.246-0.381,0.527-0.799,0.843-1.258
		c-0.126,0.158-0.298,0.375-0.515,0.654c-0.417,0.525-0.69,0.863-0.818,1.012l-6.405,7.703l-0.996-0.551l3.217-9.484
		c0.133-0.379,0.278-0.795,0.438-1.246c0.16-0.449,0.247-0.701,0.262-0.756c-0.204,0.465-0.4,0.896-0.59,1.297
		c-0.189,0.398-0.366,0.744-0.528,1.037l-4.539,8.188L103.32,209.112z"/>
	<path fill="#231F20" d="M112.701,214.313l9.323-11.785l2.609,1.445l-5.062,14.146l-2.054-1.139l1.152-3.029l-2.018-1.119
		l-1.987,2.568L112.701,214.313z M117.921,211.133l1.525,0.846l2.321-5.795l-0.125-0.07L117.921,211.133z"/>
	<path fill="#231F20" d="M120.718,218.756l7.188-12.969l2,1.109l-3.032,5.471c0.179-0.182,0.328-0.328,0.448-0.438
		c0.119-0.109,0.218-0.193,0.297-0.252l4.547-3.529l1.982,1.1l-4.68,3.197l-2.249,9.914l-2.081-1.152l1.928-7.455l-1.55,1.062
		l-2.799,5.051L120.718,218.756z"/>
	<path fill="#231F20" d="M128.251,222.932l7.188-12.969l5.22,2.895l-1.039,1.873l-3.22-1.783l-1.884,3.398l2.32,1.285l-1.039,1.875
		l-2.32-1.285l-2.147,3.873l3.22,1.785l-1.079,1.945L128.251,222.932z"/>
	<path fill="#231F20" d="M145.933,215.78l1.982,1.1l-2.933,5.291l2,1.109l2.933-5.293l2,1.109l-7.188,12.969l-2-1.109l3.216-5.803
		l-2-1.107l-3.216,5.801l-1.982-1.098L145.933,215.78z"/>
	<path fill="#231F20" d="M146.619,233.114l5.304-9.57l1.803,1l-5.304,9.568L146.619,233.114z M152.817,221.93l0.989-1.785l1.803,1
		l-0.989,1.783L152.817,221.93z"/>
	<path fill="#231F20" d="M151.528,231.532l2.069,0.771c-0.329,0.678-0.472,1.232-0.431,1.668c0.042,0.432,0.271,0.766,0.69,0.996
		c0.365,0.203,0.724,0.252,1.079,0.148c0.355-0.105,0.637-0.346,0.845-0.723c0.375-0.676,0.32-1.846-0.162-3.514
		c-0.037-0.129-0.065-0.227-0.084-0.293c-0.469-1.635-0.696-2.818-0.682-3.549c0.015-0.73,0.197-1.414,0.549-2.047
		c0.507-0.914,1.234-1.518,2.181-1.811c0.948-0.291,1.854-0.195,2.722,0.285c0.843,0.467,1.374,1.139,1.592,2.014
		s0.092,1.826-0.376,2.857l-2.109-0.807c0.286-0.6,0.412-1.072,0.382-1.418c-0.032-0.346-0.224-0.617-0.576-0.812
		c-0.322-0.178-0.642-0.213-0.957-0.102c-0.315,0.109-0.574,0.348-0.776,0.713c-0.417,0.752-0.335,2.084,0.248,3.994
		c0.021,0.074,0.039,0.135,0.052,0.182c0.424,1.406,0.621,2.475,0.594,3.201c-0.028,0.727-0.237,1.443-0.628,2.148
		c-0.524,0.945-1.247,1.559-2.169,1.84c-0.922,0.283-1.832,0.176-2.729-0.322c-0.993-0.551-1.605-1.303-1.836-2.262
		C150.781,233.737,150.953,232.682,151.528,231.532z"/>
	<path fill="#231F20" d="M162.525,227.428l1.039-1.875l6.152,3.41l-1.039,1.875l-2.081-1.154l-6.149,11.094l-2-1.107l6.149-11.094
		L162.525,227.428z"/>
	<path fill="#231F20" d="M168.738,232.336c0.567-1.021,1.29-1.668,2.166-1.939c0.879-0.271,1.808-0.137,2.788,0.406
		c0.927,0.514,1.495,1.219,1.707,2.113c0.211,0.895,0.032,1.855-0.538,2.885l-3.684,6.645c-0.63,1.137-1.383,1.865-2.26,2.184
		c-0.876,0.32-1.808,0.205-2.794-0.342c-0.998-0.553-1.59-1.281-1.772-2.184c-0.185-0.902,0.051-1.943,0.704-3.121L168.738,232.336z
		 M168.894,241.721l4.012-7.238c0.249-0.447,0.349-0.832,0.3-1.152c-0.049-0.32-0.244-0.574-0.584-0.764
		c-0.341-0.189-0.66-0.221-0.958-0.092c-0.297,0.129-0.57,0.418-0.819,0.865l-4.012,7.238c-0.249,0.447-0.35,0.834-0.302,1.156
		c0.047,0.324,0.242,0.58,0.583,0.768c0.341,0.189,0.661,0.219,0.96,0.088C168.372,242.459,168.646,242.168,168.894,241.721z"/>
	<path fill="#231F20" d="M176.187,242.375l-3.022,5.453l-2-1.109l7.188-12.969l2.934,1.627c1.1,0.609,1.73,1.346,1.894,2.209
		c0.162,0.865-0.122,1.953-0.852,3.27c-0.45,0.812-0.914,1.416-1.389,1.809c-0.477,0.393-1.024,0.621-1.645,0.684l-1.87,6.842
		l-2.072-1.148l1.785-6.139L176.187,242.375z M179.314,236.735l-2.088,3.766l0.79,0.438c0.46,0.256,0.857,0.295,1.191,0.115
		c0.333-0.178,0.708-0.645,1.125-1.398c0.378-0.682,0.545-1.203,0.502-1.568c-0.045-0.365-0.312-0.684-0.803-0.955L179.314,236.735z
		"/>
	<path fill="#231F20" d="M184.774,237.311l2.026,1.123l-1.572,5.904l0.125,0.07l4.111-4.498l2.035,1.129l-6.537,6.295l-2.982,5.381
		l-2-1.109l2.849-5.139L184.774,237.311z"/>
	<path fill="#231F20" d="M183.891,253.774l1.129-2.035l1.91,1.059l-1.129,2.035L183.891,253.774z"/>
</g>
<g>
	<g>
		<path fill="#231F20" d="M90.98,95.933l29.096-52.49l10.709,5.937c4.307,2.388,6.974,5.424,8,9.108
			c1.025,3.686,0.332,7.705-2.083,12.062c-1.448,2.614-3.18,4.651-5.192,6.114c-2.014,1.463-4.371,2.378-7.074,2.746
			c1.47,2.428,2.146,4.961,2.027,7.601c-0.119,2.639-1.05,5.532-2.793,8.679c-2.656,4.791-5.671,7.746-9.045,8.867
			c-3.372,1.119-7.273,0.451-11.701-2.003L90.98,95.933z M103.209,92.793l3.484,1.932c1.742,0.966,3.354,1.068,4.836,0.308
			c1.48-0.761,2.939-2.436,4.375-5.025c1.582-2.855,2.258-5.146,2.029-6.871c-0.231-1.725-1.41-3.178-3.54-4.357l-2.613-1.449
			L103.209,92.793z M115.985,69.743l3.267,1.811c1.477,0.818,2.975,0.827,4.495,0.024s2.911-2.341,4.173-4.616
			c1.381-2.492,1.963-4.526,1.744-6.103c-0.217-1.575-1.27-2.888-3.157-3.934l-2.613-1.449L115.985,69.743z"/>
		<path fill="#231F20" d="M150.968,60.567l8.276,4.587l-22.536,40.656c-0.845,1.525-1.127,2.959-0.843,4.303
			c0.283,1.343,1.066,2.37,2.35,3.081c1.282,0.711,2.535,0.82,3.758,0.327c1.222-0.492,2.262-1.514,3.121-3.062l22.535-40.656
			l8.24,4.567l-21.751,39.24c-2.562,4.623-5.603,7.58-9.118,8.874c-3.518,1.293-7.271,0.833-11.265-1.381
			c-4.042-2.24-6.442-5.199-7.202-8.879s0.175-7.892,2.804-12.635L150.968,60.567z"/>
		<path fill="#231F20" d="M153.925,130.824l21.47-38.732l7.297,4.045l-21.471,38.731L153.925,130.824z M179.017,85.558l4.004-7.225
			l7.296,4.045l-4.004,7.224L179.017,85.558z"/>
		<path fill="#231F20" d="M168.881,139.114l29.096-52.489l8.021,4.446l-24.89,44.903l12.56,6.962l-4.205,7.587L168.881,139.114z"/>
		<path fill="#231F20" d="M194,153.038l29.096-52.489l11.508,6.378c4.452,2.468,7.1,5.47,7.939,9.004
			c0.841,3.535-0.102,7.759-2.824,12.671l-12.998,23.45c-2.831,5.106-5.906,8.257-9.227,9.454c-3.32,1.195-7.195,0.566-11.624-1.888
			L194,153.038z M206.309,149.752l4.102,2.274c1.428,0.791,2.735,0.931,3.921,0.417c1.187-0.513,2.302-1.714,3.349-3.601
			l14.004-25.266c1.194-2.153,1.549-4.021,1.065-5.602s-1.839-2.989-4.065-4.223l-1.852-1.026L206.309,149.752z"/>
		<path fill="#231F20" d="M225.291,170.382l21.471-38.731l7.295,4.044l-21.469,38.732L225.291,170.382z M250.383,125.117
			l4.004-7.224l7.297,4.044l-4.005,7.224L250.383,125.117z"/>
		<path fill="#231F20" d="M240.247,178.673l29.096-52.49l7.26,4.024l-7.112,37.058c-0.143,0.712-0.349,1.642-0.619,2.787
			c-0.273,1.146-0.579,2.369-0.919,3.668c0.579-1.673,1.142-3.203,1.691-4.591c0.548-1.389,0.99-2.386,1.325-2.991l16.561-29.875
			l7.586,4.205l-29.096,52.49l-7.586-4.205l6.203-34.477c0.018-0.148,0.059-0.363,0.121-0.646c0.421-2.359,0.865-4.36,1.331-5.999
			c-0.729,2-1.354,3.654-1.873,4.964c-0.521,1.31-0.935,2.242-1.243,2.799l-15.212,27.442L240.247,178.673z"/>
		<path fill="#231F20" d="M280.781,183.536l14.91-26.898c2.293-4.138,5.217-6.757,8.768-7.857c3.553-1.099,7.312-0.55,11.281,1.65
			c3.823,2.119,6.097,4.867,6.82,8.241c0.724,3.375-0.142,7.277-2.597,11.705l-2.676,4.828l-7.805-4.326l3.078-5.554
			c1.006-1.815,1.41-3.371,1.212-4.667c-0.199-1.297-0.988-2.327-2.368-3.092c-1.379-0.765-2.671-0.889-3.876-0.369
			c-1.205,0.518-2.31,1.686-3.315,3.5l-16.238,29.295c-1.006,1.814-1.414,3.377-1.222,4.686c0.191,1.309,0.978,2.345,2.357,3.109
			c1.379,0.765,2.674,0.882,3.887,0.352c1.211-0.531,2.319-1.704,3.326-3.52l4.547-8.203l-4.9-2.717l3.702-6.68l12.705,7.043
			l-14.669,26.463l-3.884-2.153l0.452-4.495c-1.795,1.125-3.536,1.727-5.224,1.803c-1.688,0.077-3.427-0.381-5.217-1.373
			c-3.607-1.999-5.675-4.774-6.204-8.326C277.103,192.427,278.152,188.28,280.781,183.536z"/>
		<path fill="#231F20" d="M61.445,146.333l18.186-32.809l6.18,3.426l-18.186,32.809L61.445,146.333z M82.699,107.99l3.392-6.118
			l6.18,3.426l-3.392,6.118L82.699,107.99z"/>
		<path fill="#231F20" d="M74.113,153.355l24.646-44.461l6.149,3.408l-6.024,31.391c-0.12,0.604-0.294,1.391-0.525,2.361
			c-0.23,0.972-0.489,2.007-0.776,3.106c0.489-1.417,0.967-2.713,1.432-3.889s0.839-2.021,1.123-2.534l14.027-25.305l6.426,3.562
			l-24.646,44.462l-6.427-3.562l5.255-29.203c0.016-0.126,0.05-0.308,0.102-0.547c0.358-1.998,0.734-3.693,1.13-5.082
			c-0.618,1.694-1.147,3.096-1.588,4.205s-0.791,1.899-1.053,2.371l-12.885,23.245L74.113,153.355z"/>
		<path fill="#231F20" d="M107.119,156.899l7.095,2.646c-1.127,2.323-1.62,4.228-1.478,5.713c0.141,1.485,0.93,2.626,2.364,3.421
			c1.25,0.692,2.483,0.86,3.7,0.504c1.216-0.357,2.183-1.182,2.898-2.474c1.284-2.316,1.098-6.331-0.558-12.047
			c-0.129-0.446-0.225-0.78-0.288-1.003c-1.608-5.608-2.388-9.664-2.339-12.17s0.676-4.844,1.88-7.017
			c1.738-3.137,4.231-5.205,7.479-6.205c3.247-1,6.357-0.677,9.33,0.972c2.89,1.602,4.709,3.902,5.458,6.903
			c0.748,3.002,0.318,6.267-1.29,9.797l-7.231-2.763c0.979-2.056,1.415-3.678,1.308-4.861c-0.106-1.186-0.765-2.113-1.975-2.783
			c-1.106-0.613-2.201-0.731-3.281-0.353c-1.081,0.38-1.969,1.194-2.661,2.444c-1.432,2.583-1.148,7.148,0.85,13.695
			c0.072,0.256,0.132,0.462,0.178,0.621c1.452,4.824,2.131,8.484,2.035,10.977c-0.096,2.493-0.813,4.949-2.154,7.367
			c-1.795,3.239-4.274,5.343-7.436,6.31c-3.163,0.967-6.281,0.598-9.355-1.106c-3.403-1.887-5.502-4.47-6.297-7.75
			C104.558,164.457,105.146,160.844,107.119,156.899z"/>
		<path fill="#231F20" d="M127.584,182.996l24.646-44.463l10.055,5.574c3.751,2.079,5.91,4.602,6.477,7.568
			s-0.401,6.706-2.901,11.215c-2.329,4.203-4.981,7.054-7.956,8.554c-2.976,1.499-5.888,1.459-8.736-0.12l-4.705-2.607
			l-10.021,18.08L127.584,182.996z M147.991,162.351l2.706,1.5c1.599,0.887,2.971,1.01,4.115,0.372c1.144-0.639,2.478-2.331,4-5.079
			c1.398-2.521,2.034-4.419,1.911-5.693c-0.125-1.274-1.038-2.384-2.739-3.327l-2.459-1.363L147.991,162.351z"/>
		<path fill="#231F20" d="M153.137,197.159l24.646-44.462l17.896,9.92l-3.562,6.426l-11.039-6.118l-6.459,11.653l7.955,4.41
			l-3.562,6.426l-7.955-4.409l-7.363,13.283l11.039,6.118l-3.699,6.673L153.137,197.159z"/>
		<path fill="#231F20" d="M181.813,198.142l12.63-22.784c1.943-3.505,4.419-5.724,7.428-6.655c3.008-0.932,6.193-0.466,9.556,1.397
			c3.177,1.762,5.128,4.176,5.853,7.244s0.109,6.365-1.845,9.891l-2.369,4.274l-7.041-3.903l2.71-4.89
			c0.852-1.537,1.193-2.855,1.025-3.953c-0.168-1.099-0.837-1.972-2.005-2.619c-1.169-0.647-2.263-0.752-3.284-0.312
			c-1.02,0.439-1.957,1.428-2.809,2.965l-13.755,24.814c-0.853,1.537-1.196,2.86-1.034,3.969s0.828,1.986,1.997,2.634
			c1.168,0.647,2.265,0.747,3.292,0.298c1.025-0.449,1.965-1.443,2.817-2.98l3.357-6.058l7.042,3.903l-2.574,4.643
			c-2.158,3.895-4.741,6.39-7.746,7.483c-3.005,1.095-6.198,0.704-9.58-1.171c-3.465-1.92-5.504-4.417-6.118-7.49
			C178.746,205.767,179.563,202.201,181.813,198.142z"/>
		<path fill="#231F20" d="M219.635,184.297l3.562-6.427l21.094,11.692l-3.562,6.427l-7.134-3.954l-21.083,38.035l-6.857-3.801
			l21.084-38.036L219.635,184.297z"/>
		<path fill="#231F20" d="M240.936,201.128c1.942-3.505,4.418-5.724,7.427-6.655c3.009-0.931,6.193-0.466,9.556,1.397
			c3.177,1.762,5.129,4.176,5.853,7.244c0.725,3.068,0.109,6.365-1.845,9.891l-12.629,22.784c-2.159,3.896-4.742,6.39-7.746,7.483
			c-3.005,1.095-6.199,0.705-9.581-1.17c-3.423-1.898-5.45-4.394-6.079-7.489s0.176-6.662,2.414-10.701L240.936,201.128z
			 M241.471,233.301l13.755-24.814c0.853-1.537,1.194-2.854,1.025-3.953c-0.168-1.099-0.837-1.972-2.005-2.619
			s-2.264-0.752-3.283-0.312c-1.021,0.439-1.957,1.427-2.81,2.965l-13.755,24.813c-0.852,1.538-1.197,2.861-1.034,3.97
			s0.829,1.986,1.997,2.634c1.168,0.648,2.266,0.747,3.292,0.298C239.68,235.832,240.619,234.838,241.471,233.301z"/>
		<path fill="#231F20" d="M266.476,235.544l-10.362,18.695l-6.857-3.801l24.646-44.462l10.055,5.573
			c3.771,2.091,5.936,4.616,6.491,7.577c0.557,2.962-0.416,6.697-2.915,11.206c-1.546,2.789-3.134,4.855-4.765,6.203
			c-1.631,1.347-3.511,2.128-5.639,2.341l-6.411,23.458l-7.103-3.938l6.119-21.047L266.476,235.544z M277.196,216.204l-7.158,12.915
			l2.705,1.5c1.579,0.875,2.939,1.006,4.083,0.393c1.144-0.611,2.431-2.209,3.862-4.792c1.296-2.337,1.867-4.13,1.716-5.38
			s-1.067-2.34-2.748-3.271L277.196,216.204z"/>
	</g>
</g>
<g>
	<g>
		<polyline fill="none" stroke="#EC1C24" stroke-width="4" stroke-miterlimit="10" points="276.672,273.608 273.763,278.855 
			268.515,275.946 		"/>
		
			<line fill="none" stroke="#EC1C24" stroke-width="4" stroke-miterlimit="10" stroke-dasharray="12.136,12.136" x1="257.9" y1="270.063" x2="29.69" y2="143.563"/>
		<polyline fill="none" stroke="#EC1C24" stroke-width="4" stroke-miterlimit="10" points="24.384,140.622 19.136,137.713 
			22.045,132.465 		"/>
		
			<line fill="none" stroke="#EC1C24" stroke-width="4" stroke-miterlimit="10" stroke-dasharray="12.2728,12.2728" x1="27.995" y1="121.731" x2="84.52" y2="19.758"/>
		<polyline fill="none" stroke="#EC1C24" stroke-width="4" stroke-miterlimit="10" points="87.494,14.391 90.403,9.144 
			95.651,12.052 		"/>
		
			<line fill="none" stroke="#EC1C24" stroke-width="4" stroke-miterlimit="10" stroke-dasharray="12.136,12.136" x1="106.266" y1="17.936" x2="334.476" y2="144.435"/>
		<polyline fill="none" stroke="#EC1C24" stroke-width="4" stroke-miterlimit="10" points="339.782,147.377 345.03,150.286 
			342.121,155.534 		"/>
		
			<line fill="none" stroke="#EC1C24" stroke-width="4" stroke-miterlimit="10" stroke-dasharray="12.2728,12.2728" x1="336.171" y1="166.268" x2="279.646" y2="268.241"/>
	</g>
</g>
<g>
	<path fill="#231F20" d="M56.534,143.486l-22.848-12.665l1.751-3.16l16.132,3.096c0.31,0.062,0.715,0.151,1.213,0.27
		c0.5,0.119,1.031,0.252,1.597,0.4c-0.728-0.251-1.394-0.497-1.998-0.736c-0.604-0.238-1.038-0.431-1.302-0.577l-13.005-7.208
		l1.831-3.302l22.848,12.665l-1.83,3.303l-15.008-2.701c-0.064-0.007-0.158-0.025-0.281-0.052c-1.026-0.184-1.896-0.377-2.611-0.58
		c0.871,0.317,1.591,0.589,2.161,0.815c0.57,0.227,0.976,0.407,1.218,0.541l11.946,6.622L56.534,143.486z"/>
	<path fill="#231F20" d="M40.676,118.211l1.979-3.571l10.403,2.771l0.122-0.221l-7.924-7.244l1.988-3.587l11.09,11.518l9.48,5.256
		l-1.953,3.523l-9.054-5.019L40.676,118.211z"/>
	<path fill="#231F20" d="M70.882,117.604l-22.849-12.666l2.864-5.167c1.068-1.928,2.365-3.037,3.89-3.329
		c1.524-0.291,3.445,0.206,5.763,1.491c2.16,1.197,3.625,2.56,4.396,4.088s0.75,3.026-0.062,4.49l-1.34,2.417l9.291,5.15
		L70.882,117.604z M60.272,107.117l0.771-1.391c0.455-0.821,0.519-1.526,0.191-2.115c-0.328-0.588-1.198-1.273-2.61-2.056
		c-1.296-0.718-2.271-1.045-2.926-0.982c-0.655,0.064-1.226,0.533-1.71,1.407l-0.7,1.265L60.272,107.117z"/>
	<path fill="#231F20" d="M78.16,104.473L55.312,91.808l1.936-3.492L76.794,99.15l3.03-5.467l3.302,1.83L78.16,104.473z"/>
	<path fill="#231F20" d="M87.864,86.965L65.017,74.3l1.936-3.492l19.546,10.834l3.03-5.467l3.303,1.83L87.864,86.965z"/>
	<path fill="#231F20" d="M93.356,77.057L72.593,60.632l2.549-4.598l24.924,8.92l-2.006,3.619l-5.34-2.031l-1.971,3.555l4.525,3.5
		L93.356,77.057z M87.755,67.859l1.489-2.686l-10.21-4.09l-0.122,0.221L87.755,67.859z"/>
	<path fill="#231F20" d="M101.187,62.931L78.338,50.266l2.584-4.662c1.039-1.875,2.361-3.036,3.965-3.482
		c1.604-0.446,3.354-0.144,5.251,0.907c1.138,0.631,2.024,1.384,2.661,2.26s1.035,1.903,1.195,3.08
		c1.058-0.64,2.16-0.934,3.309-0.882c1.149,0.051,2.409,0.457,3.778,1.215c2.085,1.156,3.371,2.469,3.859,3.938
		c0.486,1.468,0.196,3.166-0.872,5.094L101.187,62.931z M89.786,52.047l0.789-1.422c0.355-0.643,0.359-1.295,0.01-1.957
		c-0.349-0.662-1.019-1.267-2.009-1.816c-1.085-0.602-1.971-0.854-2.657-0.76c-0.686,0.095-1.256,0.553-1.712,1.375l-0.63,1.138
		L89.786,52.047z M99.82,57.609l0.841-1.518c0.42-0.758,0.465-1.459,0.135-2.104c-0.332-0.645-1.061-1.28-2.188-1.904
		c-1.242-0.689-2.239-0.983-2.99-0.884c-0.751,0.101-1.384,0.614-1.897,1.541l-0.631,1.138L99.82,57.609z"/>
	<path fill="#231F20" d="M102.396,47.076l1.359-3.646c1.194,0.579,2.172,0.832,2.936,0.76c0.764-0.073,1.35-0.478,1.758-1.215
		c0.356-0.643,0.442-1.277,0.259-1.902s-0.607-1.122-1.271-1.489c-1.19-0.66-3.254-0.564-6.19,0.286
		c-0.229,0.066-0.401,0.116-0.517,0.148c-2.881,0.826-4.966,1.227-6.254,1.201c-1.287-0.024-2.488-0.347-3.605-0.966
		c-1.611-0.894-2.674-2.174-3.188-3.843c-0.514-1.669-0.348-3.268,0.499-4.795c0.823-1.485,2.006-2.42,3.548-2.805
		c1.542-0.384,3.22-0.163,5.034,0.663l-1.42,3.716c-1.056-0.503-1.889-0.727-2.498-0.672c-0.609,0.055-1.086,0.394-1.43,1.015
		c-0.315,0.569-0.376,1.131-0.182,1.687c0.195,0.555,0.614,1.012,1.256,1.367c1.328,0.736,3.674,0.59,7.039-0.437
		c0.131-0.037,0.236-0.067,0.319-0.092c2.479-0.746,4.359-1.095,5.64-1.046c1.281,0.05,2.544,0.418,3.786,1.107
		c1.665,0.923,2.745,2.196,3.243,3.821c0.496,1.625,0.307,3.228-0.569,4.808c-0.97,1.749-2.296,2.827-3.982,3.235
		C106.279,48.392,104.422,48.09,102.396,47.076z"/>
</g>
</svg>
