<?xml version="1.0" encoding="utf-8"?>
<!-- Generator: Adobe Illustrator 15.1.0, SVG Export Plug-In . SVG Version: 6.00 Build 0)  -->
<!DOCTYPE svg PUBLIC "-//W3C//DTD SVG 1.1//EN" "http://www.w3.org/Graphics/SVG/1.1/DTD/svg11.dtd">
<svg version="1.1" id="Layer_1" xmlns="http://www.w3.org/2000/svg" xmlns:xlink="http://www.w3.org/1999/xlink" x="0px" y="0px"
	 width="276px" height="151px" viewBox="0 0 276 151" enable-background="new 0 0 276 151" xml:space="preserve">
<g>
	<g>
		<path d="M21.773,77.009V16.995h12.244c4.925,0,8.729,1.363,11.414,4.088c2.684,2.726,4.026,6.579,4.026,11.559
			c0,2.988-0.526,5.61-1.577,7.865c-1.052,2.256-2.67,4.199-4.856,5.832c2.462,1.411,4.281,3.299,5.458,5.666
			c1.176,2.365,1.764,5.347,1.764,8.944c0,5.479-1.204,9.525-3.611,12.14c-2.407,2.614-6.143,3.922-11.206,3.922H21.773z
			 M30.945,41.98h3.735c1.688,0,3.002-0.719,3.943-2.158c0.94-1.438,1.411-3.458,1.411-6.06c0-2.85-0.477-4.911-1.432-6.184
			c-0.954-1.272-2.511-1.909-4.669-1.909h-2.988V41.98z M30.945,68.335h3.984c1.992,0,3.451-0.691,4.379-2.075
			c0.926-1.383,1.39-3.555,1.39-6.516c0-3.265-0.519-5.596-1.556-6.993c-1.038-1.397-2.774-2.096-5.209-2.096h-2.988V68.335z"/>
		<path d="M57.093,16.995h9.463v46.484c0,1.743,0.449,3.134,1.349,4.171c0.899,1.038,2.082,1.557,3.549,1.557
			c1.466,0,2.615-0.512,3.445-1.536c0.83-1.023,1.245-2.421,1.245-4.192V16.995h9.421V61.86c0,5.285-1.225,9.346-3.673,12.181
			c-2.449,2.837-5.956,4.254-10.521,4.254c-4.621,0-8.155-1.425-10.604-4.275c-2.448-2.85-3.673-6.986-3.673-12.41V16.995z"/>
		<path d="M93.741,25.254v-8.259h8.342v8.259H93.741z M93.741,77.009V32.725h8.342v44.285H93.741z"/>
		<path d="M110.84,77.009V16.995h9.172v51.34h14.36v8.674H110.84z"/>
		<path d="M139.561,77.009V16.995h13.157c5.091,0,8.861,1.342,11.31,4.026c2.449,2.684,3.673,6.834,3.673,12.451v26.812
			c0,5.838-1.162,10.085-3.486,12.742s-6.018,3.984-11.081,3.984H139.561z M148.733,68.169h4.69c1.632,0,2.843-0.512,3.631-1.536
			c0.789-1.023,1.183-2.615,1.183-4.773V32.974c0-2.462-0.595-4.268-1.784-5.417c-1.189-1.147-3.058-1.722-5.603-1.722h-2.117
			V68.169z"/>
		<path d="M175.338,25.254v-8.259h8.342v8.259H175.338z M175.338,77.009V32.725h8.342v44.285H175.338z"/>
		<path d="M192.438,77.009V16.995h8.301l11.745,35.859c0.221,0.692,0.491,1.605,0.81,2.739c0.317,1.135,0.643,2.352,0.975,3.652
			c-0.305-1.743-0.554-3.354-0.746-4.835c-0.194-1.48-0.291-2.566-0.291-3.258V16.995h8.674v60.015h-8.674l-11.289-33.162
			c-0.056-0.138-0.125-0.346-0.207-0.623c-0.775-2.269-1.356-4.233-1.744-5.894c0.332,2.103,0.588,3.854,0.769,5.25
			c0.18,1.398,0.27,2.415,0.27,3.051v31.377H192.438z"/>
		<path d="M230.247,61.611V30.857c0-4.731,1.287-8.439,3.859-11.123c2.574-2.684,6.129-4.026,10.667-4.026
			c4.371,0,7.691,1.301,9.961,3.901c2.269,2.601,3.403,6.433,3.403,11.497v5.52h-8.924v-6.35c0-2.075-0.401-3.632-1.203-4.669
			c-0.803-1.038-1.992-1.557-3.569-1.557s-2.768,0.519-3.569,1.557c-0.803,1.037-1.203,2.594-1.203,4.669V63.77
			c0,2.075,0.4,3.639,1.203,4.69c0.802,1.052,1.992,1.577,3.569,1.577s2.767-0.525,3.569-1.577c0.802-1.051,1.203-2.615,1.203-4.69
			v-9.38h-5.603v-7.637h14.526v30.256h-4.441l-1.784-4.15c-1.024,1.854-2.256,3.224-3.694,4.109s-3.182,1.328-5.229,1.328
			c-4.124,0-7.278-1.425-9.463-4.275C231.34,71.171,230.247,67.035,230.247,61.611z"/>
		<path d="M20.375,91.57v-6.996h7.066v6.996H20.375z M20.375,135.41V97.898h7.066v37.512H20.375z"/>
		<path d="M34.859,135.41V84.574h7.031l9.949,30.375c0.188,0.586,0.416,1.359,0.686,2.32c0.269,0.961,0.545,1.992,0.826,3.094
			c-0.258-1.477-0.469-2.842-0.633-4.096c-0.164-1.254-0.246-2.174-0.246-2.76V84.574h7.348v50.836h-7.348l-9.562-28.09
			c-0.047-0.117-0.105-0.293-0.176-0.527c-0.656-1.922-1.148-3.586-1.477-4.992c0.281,1.781,0.498,3.264,0.65,4.447
			c0.152,1.184,0.229,2.045,0.229,2.584v26.578H34.859z"/>
		<path d="M65.445,122.508l7.488-1.125c0.141,2.578,0.633,4.482,1.477,5.713s2.086,1.846,3.727,1.846
			c1.429,0,2.589-0.451,3.48-1.354c0.891-0.902,1.336-2.092,1.336-3.568c0-2.648-2.109-6.07-6.328-10.266
			c-0.329-0.328-0.575-0.574-0.738-0.738c-4.125-4.125-6.773-7.295-7.945-9.51c-1.172-2.215-1.758-4.564-1.758-7.049
			c0-3.586,1.178-6.604,3.533-9.053s5.232-3.674,8.631-3.674c3.305,0,6.012,1.131,8.121,3.393s3.316,5.326,3.621,9.193l-7.664,1.09
			c-0.141-2.273-0.545-3.902-1.213-4.887s-1.693-1.477-3.076-1.477c-1.266,0-2.28,0.428-3.041,1.283
			c-0.762,0.855-1.143,1.998-1.143,3.428c0,2.953,2.461,6.809,7.383,11.566c0.188,0.188,0.339,0.34,0.457,0.457
			c3.609,3.516,5.977,6.387,7.102,8.613s1.688,4.723,1.688,7.488c0,3.703-1.148,6.744-3.445,9.123
			c-2.297,2.379-5.203,3.568-8.719,3.568c-3.891,0-6.979-1.242-9.264-3.727S65.633,126.914,65.445,122.508z"/>
		<path d="M95.996,135.41V84.574h11.496c4.289,0,7.4,1.16,9.334,3.48s2.9,6.059,2.9,11.215c0,4.805-0.938,8.584-2.812,11.338
			c-1.875,2.754-4.442,4.131-7.699,4.131h-5.379v20.672H95.996z M103.836,107.461h3.094c1.828,0,3.088-0.557,3.779-1.67
			c0.691-1.113,1.037-3.24,1.037-6.381c0-2.883-0.364-4.852-1.09-5.906c-0.727-1.055-2.062-1.582-4.008-1.582h-2.812V107.461z"/>
		<path d="M125.211,135.41V84.574h20.461v7.348h-12.621v13.324h9.096v7.348h-9.096v15.188h12.621v7.629H125.211z"/>
		<path d="M150.77,122.367V96.316c0-4.008,1.09-7.148,3.27-9.422s5.191-3.41,9.035-3.41c3.633,0,6.51,1.166,8.631,3.498
			s3.182,5.514,3.182,9.545v4.887h-8.051v-5.59c0-1.758-0.34-3.076-1.02-3.955s-1.688-1.318-3.023-1.318s-2.344,0.439-3.023,1.318
			s-1.02,2.197-1.02,3.955v28.371c0,1.758,0.34,3.082,1.02,3.973s1.688,1.336,3.023,1.336s2.344-0.445,3.023-1.336
			s1.02-2.215,1.02-3.973v-6.926h8.051v5.309c0,4.453-1.049,7.887-3.146,10.301s-5.08,3.621-8.947,3.621
			c-3.961,0-6.955-1.195-8.982-3.586S150.77,127.008,150.77,122.367z"/>
		<path d="M177.137,91.922v-7.348h24.117v7.348h-8.156v43.488h-7.84V91.922H177.137z"/>
		<path d="M203.926,96.316c0-4.008,1.09-7.148,3.27-9.422s5.191-3.41,9.035-3.41c3.633,0,6.51,1.166,8.631,3.498
			s3.182,5.514,3.182,9.545v26.051c0,4.453-1.049,7.887-3.146,10.301s-5.08,3.621-8.947,3.621c-3.914,0-6.896-1.201-8.947-3.604
			s-3.076-5.912-3.076-10.529V96.316z M219.992,124.195V95.824c0-1.758-0.34-3.076-1.02-3.955s-1.688-1.318-3.023-1.318
			s-2.344,0.439-3.023,1.318s-1.02,2.197-1.02,3.955v28.371c0,1.758,0.34,3.082,1.02,3.973s1.688,1.336,3.023,1.336
			s2.344-0.445,3.023-1.336S219.992,125.953,219.992,124.195z"/>
		<path d="M242.949,114.035v21.375h-7.84V84.574h11.496c4.312,0,7.43,1.16,9.352,3.48s2.883,6.059,2.883,11.215
			c0,3.188-0.387,5.766-1.16,7.734s-2.039,3.562-3.797,4.781l5.766,23.625h-8.121l-4.852-21.375H242.949z M242.949,91.922v14.766
			h3.094c1.805,0,3.059-0.545,3.762-1.635s1.055-3.111,1.055-6.064c0-2.672-0.369-4.518-1.107-5.537s-2.068-1.529-3.99-1.529
			H242.949z"/>
	</g>
	<g>
		<g>
			<polyline fill="none" stroke="#ED1C24" stroke-width="4" stroke-miterlimit="10" points="274,143 274,149 268,149 			"/>
			
				<line fill="none" stroke="#ED1C24" stroke-width="4" stroke-miterlimit="10" stroke-dasharray="12.381,12.381" x1="255.619" y1="149" x2="14.19" y2="149"/>
			<polyline fill="none" stroke="#ED1C24" stroke-width="4" stroke-miterlimit="10" points="8,149 2,149 2,143 			"/>
			
				<line fill="none" stroke="#ED1C24" stroke-width="4" stroke-miterlimit="10" stroke-dasharray="12.2727,12.2727" x1="2" y1="130.728" x2="2" y2="14.136"/>
			<polyline fill="none" stroke="#ED1C24" stroke-width="4" stroke-miterlimit="10" points="2,8 2,2 8,2 			"/>
			
				<line fill="none" stroke="#ED1C24" stroke-width="4" stroke-miterlimit="10" stroke-dasharray="12.381,12.381" x1="20.381" y1="2" x2="261.81" y2="2"/>
			<polyline fill="none" stroke="#ED1C24" stroke-width="4" stroke-miterlimit="10" points="268,2 274,2 274,8 			"/>
			
				<line fill="none" stroke="#ED1C24" stroke-width="4" stroke-miterlimit="10" stroke-dasharray="12.2727,12.2727" x1="274" y1="20.273" x2="274" y2="136.863"/>
		</g>
	</g>
</g>
</svg>
