<?xml version="1.0" encoding="utf-8"?>
<!-- Generator: Adobe Illustrator 15.1.0, SVG Export Plug-In . SVG Version: 6.00 Build 0)  -->
<!DOCTYPE svg PUBLIC "-//W3C//DTD SVG 1.1//EN" "http://www.w3.org/Graphics/SVG/1.1/DTD/svg11.dtd">
<svg version="1.1" id="Layer_1" xmlns="http://www.w3.org/2000/svg" xmlns:xlink="http://www.w3.org/1999/xlink" x="0px" y="0px"
	 width="960.651px" height="957.001px" viewBox="0 0 960.651 957.001" enable-background="new 0 0 960.651 957.001"
	 xml:space="preserve">
<polygon fill-rule="evenodd" clip-rule="evenodd" fill="#908B85" points="959.43,374.062 940.606,399.151 605.031,210.999 
	749.294,-46.178 1088.007,138.844 "/>
<polygon fill-rule="evenodd" clip-rule="evenodd" fill="#908B85" points="959.43,1340.014 940.606,1365.103 605.031,1176.951 
	749.294,919.773 1088.007,1104.796 "/>
<polygon fill-rule="evenodd" clip-rule="evenodd" fill="#908B85" points="-0.521,374.062 -19.345,399.151 -354.92,210.999 
	-210.657,-46.178 128.056,138.844 "/>
<polygon fill-rule="evenodd" clip-rule="evenodd" fill="#E8E4E2" points="643.955,89.251 629.333,114.318 581.284,89.251 
	620.978,22.407 666.934,43.296 "/>
<polygon fill-rule="evenodd" clip-rule="evenodd" fill="#514E49" points="444.028,691.232 424.467,717.583 315.778,657.33 
	365.761,563.222 474.45,623.473 "/>
<polygon fill-rule="evenodd" clip-rule="evenodd" fill="#3F3A34" points="150.888,106.115 135.287,133.142 34.735,79.092 
	33.016,64.078 64.22,10.027 166.491,67.08 "/>
<polygon fill-rule="evenodd" clip-rule="evenodd" fill="#D0CDC8" points="438.045,312.661 373.986,272.32 484.633,80.636 
	574.914,136.125 464.269,327.783 "/>
<polygon fill-rule="evenodd" clip-rule="evenodd" fill="#3F3A34" points="767.159,760.08 693.307,721.154 693.307,710.035 
	735.044,648.867 744.682,609.939 802.476,509.823 911.646,565.443 815.335,754.535 796.056,776.771 "/>
<polygon fill-rule="evenodd" clip-rule="evenodd" fill="#908B85" points="346.022,486.3 326.07,512.217 221.298,451.723 
	288.645,326.434 395.898,391.255 "/>
<polygon fill-rule="evenodd" clip-rule="evenodd" fill="#908B85" points="120.965,625.344 16.955,563.372 155.083,306.739 
	239.463,349.606 172.166,477.161 175.104,524.312 192.202,536.282 138.522,635.05 "/>
<polygon fill-rule="evenodd" clip-rule="evenodd" fill="#908B85" points="605.832,446.395 425.142,347.842 485.371,232.843 
	677.031,342.36 616.797,451.877 "/>
<polygon fill-rule="evenodd" clip-rule="evenodd" fill="#514E49" points="589.382,257.409 580.632,264.982 506.302,219.548 
	574.084,94.562 652.786,139.996 "/>
<polygon fill-rule="evenodd" clip-rule="evenodd" fill="#908B85" points="235.985,620.142 142.745,567.943 191.227,478.426 
	303.113,538.087 258.354,620.142 250.891,627.607 "/>
<polygon fill-rule="evenodd" clip-rule="evenodd" fill="#D0CDC8" points="908.01,534.327 832.091,495.268 868.562,422.524 
	947.592,462.65 "/>
<polygon fill-rule="evenodd" clip-rule="evenodd" fill="#908B85" points="461.396,211.804 453.775,225.012 395.354,194.22 
	392.808,181.014 514.729,-30.142 575.673,5.066 "/>
<polygon fill-rule="evenodd" clip-rule="evenodd" fill="#908B85" points="461.396,1170.86 453.775,1184.068 395.354,1153.277 
	392.808,1140.07 514.729,928.915 575.673,964.123 "/>
<polygon fill-rule="evenodd" clip-rule="evenodd" fill="#E8E4E2" points="595.973,880.803 579.041,898.383 369.283,781.188 
	430.163,663.99 639.971,781.188 643.32,798.766 "/>
<polygon fill-rule="evenodd" clip-rule="evenodd" fill="#514E49" points="110.782,447.653 97.376,470.895 16.955,424.458 
	116.133,234.063 196.557,280.498 "/>
<polygon fill-rule="evenodd" clip-rule="evenodd" fill="#D0CDC8" points="138.84,839.525 -127.54,694.518 -70.467,582.458 
	222.549,747.244 161.663,852.71 "/>
<polygon fill-rule="evenodd" clip-rule="evenodd" fill="#D0CDC8" points="1112.898,839.525 846.519,694.518 903.592,582.458 
	1196.607,747.244 1135.722,852.71 "/>
<polygon fill-rule="evenodd" clip-rule="evenodd" fill="#D0CDC8" points="290.577,932.592 281.832,940.164 207.5,894.73 
	275.282,769.741 353.986,815.175 "/>
<polygon fill-rule="evenodd" clip-rule="evenodd" fill="#908B85" points="717.072,650.61 598.264,586.722 590.083,572.536 
	667.918,437.712 729.367,473.182 762.157,458.995 815.404,352.546 926.01,416.434 868.649,515.744 827.699,529.974 753.934,671.888 
	"/>
<polygon fill-rule="evenodd" clip-rule="evenodd" fill="#908B85" points="378.229,769.459 311.165,730.727 311.165,717.822 
	437.807,485.539 568.187,556.521 430.364,795.265 "/>
<polygon fill-rule="evenodd" clip-rule="evenodd" fill="#D0CDC8" points="158.892,196.224 79.163,148.419 142.919,32.831 
	242.578,92.626 186.789,196.224 178.78,204.209 "/>
<polygon fill-rule="evenodd" clip-rule="evenodd" fill="#908B85" points="852.85,891.095 826.303,864.808 883.183,759.71 
	953.38,795.831 890.799,910.81 "/>
<polygon fill-rule="evenodd" clip-rule="evenodd" fill="#D0CDC8" points="310.806,435.445 44.427,290.439 101.5,178.378 
	394.515,343.164 333.633,448.631 "/>
<polygon fill-rule="evenodd" clip-rule="evenodd" fill="#D0CDC8" points="100.892,664.078 6.696,617.751 41.534,550.361 
	134.208,600.191 "/>
<polygon fill-rule="evenodd" clip-rule="evenodd" fill="#3F3A34" points="370.394,229.734 355.771,254.8 307.728,229.734 
	347.417,162.886 393.374,183.776 "/>
<polygon fill-rule="evenodd" clip-rule="evenodd" fill="#E8E4E2" points="580.87,569.312 560.916,595.228 456.146,534.736 
	523.487,409.445 630.74,474.268 "/>
<polygon fill-rule="evenodd" clip-rule="evenodd" fill="#D0CDC8" points="809.524,174.355 782.978,148.07 839.861,42.971 
	910.059,79.093 847.474,194.07 "/>
<polygon fill-rule="evenodd" clip-rule="evenodd" fill="#514E49" points="141.005,923.644 130.538,941.769 25.874,881.369 
	158.434,627.607 266.581,694.058 "/>
<polygon fill-rule="evenodd" clip-rule="evenodd" fill="#E8E4E2" points="854.044,927.281 842.879,940.164 829.864,936.946 
	746.182,888.634 783.389,811.346 885.662,866.093 "/>
<polygon fill-rule="evenodd" clip-rule="evenodd" fill="#908B85" points="411.367,590.203 230.677,491.655 290.906,376.655 
	482.565,486.169 422.335,595.688 "/>
<polygon fill-rule="evenodd" clip-rule="evenodd" fill="#D0CDC8" points="754.859,586.022 742.63,607.22 723.07,607.22 
	569.054,518.287 529.933,526.75 522.601,539.461 505.495,535.237 407.708,475.964 439.498,412.426 "/>
<polygon fill-rule="evenodd" clip-rule="evenodd" fill="#E8E4E2" points="769.465,767.478 741.287,816.287 651.592,767.478 
	686.189,703.134 773.316,751.944 "/>
<polygon fill-rule="evenodd" clip-rule="evenodd" fill="#514E49" points="363.49,106.748 280.743,60.355 297.78,22.407 
	396.37,75.11 379.332,108.837 "/>
<polygon fill-rule="evenodd" clip-rule="evenodd" fill="#E8E4E2" points="761.896,489.128 754.279,502.336 695.854,471.547 
	693.307,458.338 815.227,247.185 876.173,282.392 "/>
<polygon fill-rule="evenodd" clip-rule="evenodd" fill="#3F3A34" points="563.985,423.914 551.669,434.581 456.146,375.871 
	563.985,178.378 656.442,231.756 665.69,247.768 "/>
<polygon fill-rule="evenodd" clip-rule="evenodd" fill="#3F3A34" points="474.451,916.514 467.271,928.915 359.734,866.813 
	406.344,773.661 388.415,717.761 442.159,624.627 589.166,705.358 "/>
<polygon fill-rule="evenodd" clip-rule="evenodd" fill="#514E49" points="750.338,395.651 735.716,420.717 687.673,395.651 
	727.36,328.805 773.316,349.693 "/>
</svg>
