<?xml version="1.0" encoding="utf-8"?>
<!-- Generator: Adobe Illustrator 15.1.0, SVG Export Plug-In . SVG Version: 6.00 Build 0)  -->
<!DOCTYPE svg PUBLIC "-//W3C//DTD SVG 1.1//EN" "http://www.w3.org/Graphics/SVG/1.1/DTD/svg11.dtd">
<svg version="1.1" id="Layer_1" xmlns="http://www.w3.org/2000/svg" xmlns:xlink="http://www.w3.org/1999/xlink" x="0px" y="0px"
	 width="440.982px" height="356.926px" viewBox="0 0 440.982 356.926" enable-background="new 0 0 440.982 356.926"
	 xml:space="preserve">
<g>
	<polygon fill-rule="evenodd" clip-rule="evenodd" fill="#3F3A34" points="138.416,200.295 136.928,201.841 129.786,197.718 
		142.881,172.977 150.618,177.1 	"/>
	<polygon fill-rule="evenodd" clip-rule="evenodd" points="304.111,201.169 296.307,195.879 309.878,171.196 319.378,177.074 
		305.808,201.757 	"/>
	<polygon fill-rule="evenodd" clip-rule="evenodd" fill="#D0CDC8" points="291.838,200.771 291.165,201.94 287.791,199.603 
		291.838,191.42 290.15,187.329 287.791,185.575 288.128,183.823 298.925,165.121 308.372,170.965 	"/>
	<polygon fill-rule="evenodd" clip-rule="evenodd" fill="#71695D" points="316.207,202.565 308.896,198.344 320.473,177.234 
		330.223,182.512 319.254,202.565 318.036,203.62 	"/>
	<polygon fill-rule="evenodd" clip-rule="evenodd" fill="#171615" points="237.962,202.678 235.943,205.4 224.714,199.178 
		229.879,189.456 241.106,195.679 	"/>
	<polygon fill-rule="evenodd" clip-rule="evenodd" fill="#D0CDC8" points="249.328,205.221 240.78,200.431 242.54,196.511 
		252.724,201.955 250.964,205.438 	"/>
	<polygon fill-rule="evenodd" clip-rule="evenodd" fill="#171615" points="143.416,205.625 138.479,203.025 138.178,201.895 
		151.126,178.563 154.651,179.265 158.876,182.267 145.405,206.721 	"/>
	<polygon fill-rule="evenodd" clip-rule="evenodd" points="327.588,208.939 320.165,204.654 319.854,203.047 330.682,183.222 
		340.89,189.116 329.135,209.477 	"/>
	<polygon fill-rule="evenodd" clip-rule="evenodd" fill="#D0CDC8" points="150.351,209.541 145.94,206.997 159.466,182.551 
		167.111,186.625 166.521,188.662 153.585,211.07 	"/>
	<polygon fill-rule="evenodd" clip-rule="evenodd" fill="#908B85" points="84.883,81.375 66.705,70.469 71.379,61.641 
		92.673,73.585 87.479,82.934 	"/>
	<polygon fill-rule="evenodd" clip-rule="evenodd" fill="#D0CDC8" points="124.909,81.041 123.728,82.268 116.168,77.358 
		123.965,63.036 131.997,67.947 	"/>
	<polygon fill-rule="evenodd" clip-rule="evenodd" points="240.863,210.611 239.354,213.203 234.388,210.611 238.49,203.708 
		243.236,205.864 	"/>
	<polygon fill-rule="evenodd" clip-rule="evenodd" fill="#171615" points="163.275,214.711 161.767,216.28 154.828,211.578 
		168.102,187.541 175.946,191.722 	"/>
	<polygon fill-rule="evenodd" clip-rule="evenodd" fill="#E8E4E2" points="167.833,219.716 163.994,217.158 163.698,215.624 
		177.282,192.096 184.666,196.699 171.671,220.226 170.49,221.251 	"/>
	<polygon fill-rule="evenodd" clip-rule="evenodd" fill="#514E49" points="291.825,223.22 283.547,218.413 286.217,213.34 
		296.098,218.948 293.428,224.02 	"/>
	<polygon fill-rule="evenodd" clip-rule="evenodd" fill="#3F3A34" points="177.464,224.946 173.075,222.411 173.66,220.384 
		175.709,214.81 185.657,197.58 193.558,202.14 179.805,225.958 	"/>
	<polygon fill-rule="evenodd" clip-rule="evenodd" fill="#908B85" points="189.271,231.736 181.022,226.974 181.022,225.915 
		192.021,206.865 202.104,212.684 190.798,232.265 	"/>
	<polygon fill-rule="evenodd" clip-rule="evenodd" fill="#3F3A34" points="198.579,236.978 191.96,232.808 203.389,213.012 
		212.716,218.743 201.285,238.54 	"/>
	<polygon fill-rule="evenodd" clip-rule="evenodd" points="297.588,239.913 296.731,241.394 287.752,236.211 293.525,225.472 
		302.719,230.286 	"/>
	<polygon fill-rule="evenodd" clip-rule="evenodd" points="343.185,241.316 325.887,231.617 324.611,229.378 342.594,195.65 
		345.082,193.753 367.461,206.448 347.554,243.39 	"/>
	<polygon fill-rule="evenodd" clip-rule="evenodd" points="384.55,243.977 372.662,237.789 370.853,235.862 384.655,211.002 
		398.156,218.305 	"/>
	<polygon fill-rule="evenodd" clip-rule="evenodd" fill="#3F3A34" points="217.785,238.571 213.528,245.456 204.112,240.153 
		214.825,220.981 224.368,226.002 	"/>
	<polygon fill-rule="evenodd" clip-rule="evenodd" fill="#171615" points="426.04,245.22 425.446,246.247 423.368,245.732 
		406.143,235.444 405.846,233.901 410.597,225.67 429.605,235.959 429.901,238.531 	"/>
	<polygon fill-rule="evenodd" clip-rule="evenodd" fill="#171615" points="305.506,246.372 297.734,241.605 303.561,230.722 
		313.179,236.292 307.212,246.908 	"/>
	<polygon fill-rule="evenodd" clip-rule="evenodd" fill="#E8E4E2" points="80.519,92.583 61.494,81.598 66.024,71.66 86.86,83.691 
		82.029,93.104 	"/>
	<polygon fill-rule="evenodd" clip-rule="evenodd" points="223.875,251.347 215.045,246.379 215.045,244.725 224.979,227.059 
		234.366,231.478 236.572,233.685 226.085,252.452 	"/>
	<polygon fill-rule="evenodd" clip-rule="evenodd" fill="#514E49" points="239.203,252.012 236.164,255.172 228.868,250.96 
		228.562,249.38 240.722,228.32 249.537,233.058 	"/>
	<polygon fill-rule="evenodd" clip-rule="evenodd" fill="#71695D" points="415.393,253.995 400.28,244.934 404.931,235.874 
		423.822,246.444 424.694,247.955 420.044,256.008 	"/>
	<polygon fill-rule="evenodd" clip-rule="evenodd" fill="#71695D" points="245.149,260.242 238.368,255.646 250.458,233.683 
		258.127,237.769 258.421,239.301 246.035,260.752 	"/>
	<polygon fill-rule="evenodd" clip-rule="evenodd" points="339.474,261.299 337.71,263.592 328.438,258.24 333.956,247.917 
		344.109,253.271 	"/>
	<polygon fill-rule="evenodd" clip-rule="evenodd" fill="#E8E4E2" points="116.734,95.69 115.831,96.472 108.153,91.779 
		115.379,78.479 123.509,83.174 	"/>
	<polygon fill-rule="evenodd" clip-rule="evenodd" points="412.948,265.879 394.618,255.298 399.274,246.229 419.639,257.313 
		414.401,266.383 	"/>
	<polygon fill-rule="evenodd" clip-rule="evenodd" fill="#E8E4E2" points="253,264.94 247.033,261.132 259.28,238.832 
		269.017,243.727 256.455,266.571 	"/>
	<polygon fill-rule="evenodd" clip-rule="evenodd" points="263.139,270.604 258.486,267.918 257.867,265.77 269.032,245.359 
		270.583,244.819 278.956,249.656 266.551,272.215 	"/>
	<polygon fill-rule="evenodd" clip-rule="evenodd" fill="#908B85" points="409.7,274.924 408.833,276.425 390.049,265.91 
		389.76,263.41 394.096,255.9 414.036,267.415 	"/>
	<polygon fill-rule="evenodd" clip-rule="evenodd" points="128.106,99.945 118.993,94.264 132.844,69.011 144.143,74.693 
		144.143,75.956 129.928,100.576 	"/>
	<polygon fill-rule="evenodd" clip-rule="evenodd" fill="#908B85" points="277.297,276.807 274.757,280.228 266.295,275.342 
		275.604,257.262 276.732,256.285 285.478,261.659 	"/>
	<polygon fill-rule="evenodd" clip-rule="evenodd" fill="#E8E4E2" points="401.588,284.141 384.295,274.533 388.618,265.889 
		408.313,277.416 404.47,285.101 	"/>
	<polygon fill-rule="evenodd" clip-rule="evenodd" fill="#71695D" points="357.028,283.986 356.446,284.993 352.364,282.975 
		347.121,278.938 357.318,260.265 366.935,265.816 	"/>
	<polygon fill-rule="evenodd" clip-rule="evenodd" fill="#908B85" points="282.392,284.782 276.105,280.821 286.393,262.014 
		295.822,267.458 284.963,286.265 	"/>
	<polygon fill-rule="evenodd" clip-rule="evenodd" fill="#3F3A34" points="77.688,101.357 75.883,103.44 56.034,91.98 
		55.732,90.417 60.545,82.083 81.298,94.063 	"/>
	<polygon fill-rule="evenodd" clip-rule="evenodd" fill="#71695D" points="292.275,290.425 286.849,287.465 286.356,285.986 
		296.222,268.228 305.594,272.667 305.594,273.653 295.729,291.412 294.743,291.906 	"/>
	<polygon fill-rule="evenodd" clip-rule="evenodd" fill="#71695D" points="301.915,295.683 296.32,292.114 307.506,271.718 
		316.632,277.329 305.152,297.213 	"/>
	<polygon fill-rule="evenodd" clip-rule="evenodd" points="138.325,105.763 130.85,101.447 144.242,77.172 152.652,82.027 
		152.652,83.105 139.883,106.302 	"/>
	<polygon fill-rule="evenodd" clip-rule="evenodd" fill="#E8E4E2" points="396.214,300.031 394.868,301.198 374.336,288.953 
		373.999,287.204 379.722,277.295 401.599,289.538 	"/>
	<polygon fill-rule="evenodd" clip-rule="evenodd" fill="#D0CDC8" points="314.434,302.425 306.194,297.905 321.091,271.265 
		330.189,276.002 330.546,277.234 316.792,302.248 315.634,303.338 	"/>
	<polygon fill-rule="evenodd" clip-rule="evenodd" fill="#D0CDC8" points="347.199,302.641 346.342,304.127 344.913,303.632 
		336.624,298.186 346.342,280.363 356.062,286.303 	"/>
	<polygon fill-rule="evenodd" clip-rule="evenodd" fill="#171615" points="329.414,308.368 327.49,310.368 317.482,303.7 
		332.493,276.362 344.425,282.364 	"/>
	<polygon fill-rule="evenodd" clip-rule="evenodd" fill="#171615" points="390.812,310.018 389.192,312.817 367.843,300.492 
		368.167,297.692 372.696,289.846 394.37,301.611 394.693,303.293 	"/>
	<polygon fill-rule="evenodd" clip-rule="evenodd" fill="#3F3A34" points="337.064,315.888 329.517,311.533 336.058,299.331 
		347.379,305.868 340.586,317.633 	"/>
	<polygon fill-rule="evenodd" clip-rule="evenodd" fill="#514E49" points="379.337,323.063 360.826,312.14 366.216,301.389 
		388.44,313.335 382.522,324.852 	"/>
	<polygon fill-rule="evenodd" clip-rule="evenodd" fill="#171615" points="147.34,110.804 140.671,106.604 153.705,82.979 
		161.889,87.704 149.158,111.854 	"/>
	<polygon fill-rule="evenodd" clip-rule="evenodd" fill="#D0CDC8" points="106.224,111.716 99.469,107.079 107.193,93.137 
		115.812,97.583 107.813,112.198 	"/>
	<polygon fill-rule="evenodd" clip-rule="evenodd" fill="#71695D" points="69.573,112.98 50.76,101.965 50.962,99.414 
		54.875,92.324 75.553,104.526 71.837,112.084 70.472,113.509 	"/>
	<polygon fill-rule="evenodd" clip-rule="evenodd" fill="#E8E4E2" points="376.958,335.492 375.213,337.308 353.544,325.203 
		359.835,313.095 381.504,325.203 381.852,327.019 	"/>
	<polygon fill-rule="evenodd" clip-rule="evenodd" fill="#71695D" points="159.123,115.231 157.625,116.788 152.532,114.194 
		150.435,111.599 162.718,88.251 171.105,92.401 	"/>
	<polygon fill-rule="evenodd" clip-rule="evenodd" fill="#3F3A34" points="166.827,121.738 159.075,116.905 172.098,93.272 
		180.471,98.105 168.066,121.738 	"/>
	<polygon fill-rule="evenodd" clip-rule="evenodd" fill="#514E49" points="63.491,124.111 44.674,113.247 44.674,111.074 
		49.377,102.925 69.45,113.79 70.076,114.876 65.373,124.111 	"/>
	<polygon fill-rule="evenodd" clip-rule="evenodd" fill="#D0CDC8" points="100.501,125.104 99.826,126.275 98.699,125.884 
		91.712,121.59 98.699,108.708 107.038,113.783 	"/>
	<polygon fill-rule="evenodd" clip-rule="evenodd" fill="#514E49" points="176.976,127.302 175.061,129.513 167.403,125.092 
		181.441,98.564 190.058,103.538 	"/>
	<polygon fill-rule="evenodd" clip-rule="evenodd" fill="#908B85" points="61.285,132.97 59.815,134.498 39.531,122.787 
		39.531,120.75 43.646,113.621 65.107,126.352 	"/>
	<polygon fill-rule="evenodd" clip-rule="evenodd" fill="#D0CDC8" points="182.355,133.407 176.845,130.226 190.621,104.245 
		198.579,108.487 184.192,134.466 	"/>
	<polygon fill-rule="evenodd" clip-rule="evenodd" fill="#71695D" points="191.796,138.948 185.118,135.094 199.427,109.208 
		207.693,113.614 193.386,139.498 	"/>
	<polygon fill-rule="evenodd" clip-rule="evenodd" fill="#D0CDC8" points="92.497,139.53 91.594,140.312 83.915,135.618 
		90.916,122.709 99.047,127.403 	"/>
	<polygon fill-rule="evenodd" clip-rule="evenodd" fill="#171615" points="53.533,142.4 35.015,131.708 34.454,130.736 
		37.82,123.932 38.662,123.447 59.706,135.596 56.059,142.886 	"/>
	<polygon fill-rule="evenodd" clip-rule="evenodd" fill="#908B85" points="208.772,142.672 207.334,143.917 195.828,137.69 
		208.772,114.024 220.637,120.875 	"/>
	<polygon fill-rule="evenodd" clip-rule="evenodd" fill="#171615" points="100.058,61.986 78.344,49.835 83.355,40 108.074,53.885 
		108.743,55.043 104.734,63.144 103.065,63.722 	"/>
	<polygon fill-rule="evenodd" clip-rule="evenodd" fill="#514E49" points="145.534,146.801 143.088,150.472 136.075,146.801 
		139.989,138.891 147.492,142.847 	"/>
	<polygon fill-rule="evenodd" clip-rule="evenodd" points="233.808,128.371 221.339,151.206 211.361,146.269 209.224,145.034 
		209.224,143.8 222.051,121.582 	"/>
	<polygon fill-rule="evenodd" clip-rule="evenodd" fill="#908B85" points="56.271,153.961 55.687,154.972 53.644,154.466 
		30.583,140.816 30,138.792 33.795,132.221 54.811,144.354 53.936,146.883 55.104,150.927 57.146,152.443 	"/>
	<polygon fill-rule="evenodd" clip-rule="evenodd" fill="#71695D" points="66.2,154.381 59.59,150.193 63.298,143.213 
		70.875,147.401 67.973,153.544 	"/>
	<polygon fill-rule="evenodd" clip-rule="evenodd" fill="#908B85" points="230.338,153.58 223.175,149.444 234.516,129.801 
		244.066,134.971 234.516,152.546 232.725,154.613 	"/>
	<polygon fill-rule="evenodd" clip-rule="evenodd" fill="#171615" points="128.589,157.737 126.79,159.251 118.968,154.88 
		130.547,133.94 139.183,138.6 	"/>
	<polygon fill-rule="evenodd" clip-rule="evenodd" points="144.804,157.047 141.666,155.181 147.576,144.343 148.769,143.58 
		155.502,147.807 149.197,159.217 	"/>
	<polygon fill-rule="evenodd" clip-rule="evenodd" fill="#3F3A34" points="241.704,159.819 234.078,155.064 244.448,136.045 
		245.975,135.517 255.124,140.8 244.143,160.875 	"/>
	<polygon fill-rule="evenodd" clip-rule="evenodd" points="165.797,164.716 160.428,161.416 164.931,153.017 172.724,156.917 
		167.702,165.616 	"/>
	<polygon fill-rule="evenodd" clip-rule="evenodd" fill="#171615" points="74.713,166.46 65.062,160.886 75.357,141.94 
		87.26,148.071 87.26,149.185 76.644,167.574 	"/>
	<polygon fill-rule="evenodd" clip-rule="evenodd" fill="#3F3A34" points="255.733,166.104 254.5,167.173 245.241,161.828 
		245.241,160.76 256.352,141.517 266.535,147.396 	"/>
	<polygon fill-rule="evenodd" clip-rule="evenodd" fill="#71695D" points="174.505,169.634 168.67,166.265 173.443,157.383 
		181.047,161.979 176.449,170.553 	"/>
	<polygon fill-rule="evenodd" clip-rule="evenodd" fill="#171615" points="87.736,173.995 78.277,167.78 89.367,147.442 
		100.13,153.657 88.715,174.56 	"/>
	<polygon fill-rule="evenodd" clip-rule="evenodd" fill="#908B85" points="184.206,174.959 177.209,170.919 181.874,162.218 
		189.768,166.568 185.104,175.27 	"/>
	<polygon fill-rule="evenodd" clip-rule="evenodd" fill="#71695D" points="94.106,70.758 92.545,72.379 72.884,61.028 
		72.572,59.407 77.565,50.758 97.539,61.569 98.162,62.65 	"/>
	<polygon fill-rule="evenodd" clip-rule="evenodd" fill="#908B85" points="278.423,174.851 275.425,179.005 266.435,173.812 
		277.523,153.566 287.114,158.758 	"/>
	<polygon fill-rule="evenodd" clip-rule="evenodd" points="101.27,181.733 89.685,175.025 101.27,154.294 114.074,161.611 
		103.708,181.123 102.489,182.342 	"/>
	<polygon fill-rule="evenodd" clip-rule="evenodd" fill="#171615" points="256.549,182.232 255.562,180.525 259.505,173.696 
		256.222,166.869 267.389,147.522 276.589,153.212 261.477,180.525 259.177,183.369 	"/>
	<polygon fill-rule="evenodd" clip-rule="evenodd" fill="#171615" points="287.728,182.316 286.217,184.935 277.45,180.222 
		277.146,178.65 288.333,159.275 297.705,165.035 	"/>
	<polygon fill-rule="evenodd" clip-rule="evenodd" fill="#908B85" points="114.654,188.935 103.909,182.531 118.177,156.022 
		126.894,160.453 119.942,173.627 120.247,178.498 122.011,179.734 116.467,189.937 	"/>
	<polygon fill-rule="evenodd" clip-rule="evenodd" points="131.098,192.328 127.869,196.802 118.505,191.769 117.537,190.09 
		127.869,171.078 139.17,177.229 	"/>
</g>
</svg>
